<?xml version="1.0" encoding="utf-8"?>
<!-- Generator: Adobe Adobe Illustrator 24.2.0, SVG Export Plug-In . SVG Version: 6.00 Build 0)  -->
<svg version="1.1" xmlns="http://www.w3.org/2000/svg" xmlns:xlink="http://www.w3.org/1999/xlink" x="0px" y="0px" width="2000px"
	 height="2000px" viewBox="0 0 2000 2000" style="enable-background:new 0 0 2000 2000;" xml:space="preserve">
<style type="text/css">
	.st0{fill:url(#SVGID_1_);}
	.st1{fill:#273843;}
	.st2{fill:url(#Bico_1_);}
	.st3{fill:url(#SVGID_6_);}
	.st4{fill:url(#Fundo_2_);}
	.st5{fill:url(#SVGID_7_);}
	.st6{fill:url(#SVGID_8_);}
	.st7{fill:url(#SVGID_9_);}
	.st8{fill:url(#SVGID_10_);}
	.st9{fill:#4A4D4E;}
	.st10{fill:url(#SVGID_11_);}
	.st11{fill:url(#SVGID_12_);}
	.st12{fill:url(#SVGID_13_);}
	.st13{fill:url(#SVGID_14_);}
	.st14{fill:url(#SVGID_15_);}
	.st15{fill:url(#SVGID_16_);}
	.st16{fill:url(#SVGID_17_);}
	.st17{fill:url(#SVGID_18_);}
	.st18{fill:url(#SVGID_19_);}
	.st19{fill:url(#SVGID_20_);}
	.st20{fill:url(#SVGID_21_);}
	.st21{fill:url(#SVGID_22_);}
	.st22{fill:#EEEE51;stroke:#EEEF51;stroke-width:0.7;stroke-miterlimit:10;}
	.st23{fill:url(#SVGID_23_);}
	.st24{fill:url(#SVGID_24_);}
	.st25{fill:url(#SVGID_25_);}
	.st26{fill:url(#SVGID_26_);}
	.st27{fill:#F3AB40;stroke:#F3AB40;stroke-width:0.7;stroke-miterlimit:10;}
	.st28{fill:#F0F6B9;stroke:#ECF4B8;stroke-width:0.8;stroke-miterlimit:10;}
	.st29{fill:#2A3F46;stroke:#294046;stroke-miterlimit:10;}
	.st30{fill:url(#SVGID_27_);stroke:#DCE8A8;stroke-miterlimit:10;}
	.st31{fill:url(#SVGID_28_);}
	.st32{fill:url(#SVGID_29_);}
</style>
<g id="Layer_37">
	<linearGradient id="SVGID_1_" gradientUnits="userSpaceOnUse" x1="0" y1="1000" x2="2000" y2="1000">
		<stop  offset="0" style="stop-color:#1B1C1F"/>
		<stop  offset="1" style="stop-color:#2B1F30"/>
	</linearGradient>
	<rect y="0" class="st0" width="2000" height="2000"/>
</g>
<g id="Layer_38">
	<ellipse class="st1" cx="1007.96" cy="1004.59" rx="971.36" ry="971.15"/>
</g>
<g id="Fundo_1_">
	<g>
		<g>
			<defs>
				<ellipse id="SVGID_2_" cx="996.6" cy="1016.73" rx="983.48" ry="983.27"/>
			</defs>
			<clipPath id="SVGID_3_">
				<use xlink:href="#SVGID_2_"  style="overflow:visible;"/>
			</clipPath>
		</g>
	</g>
</g>
<g id="Arco">
	<g>
		<g>
			<defs>
				<path id="SVGID_4_" d="M166.29,1543.86l25.86-59.1c0,0-28.82-51.22-37.56-68.7c-6.67-13.34-19.04-40.46-24.66-54.24
					c-6.2-15.19-17.89-45.84-23.11-61.36c-4.21-12.51-12.06-37.71-15.46-50.45c-4.26-15.96-12.03-48.08-15.27-64.26
					c-2.57-12.84-7.13-38.62-8.91-51.58c-2.07-15.08-5.59-45.34-6.7-60.52c-1.16-15.75-2.66-47.32-2.86-63.11
					c-0.14-10.73-0.02-32.21,0.43-42.94c0.67-16.07,2.54-48.21,4.21-64.22c1.73-16.53,6.06-49.52,8.95-65.9
					c2.73-15.48,8.92-46.32,12.72-61.59c4.11-16.55,13.07-49.5,18.43-65.73c6.46-19.59,20.6-58.42,28.64-77.46
					c6.27-14.87,19.57-44.34,27.08-58.67c11.91-22.73,37.19-67.53,51.21-89.13c10.61-16.34,33.06-48.33,45.19-63.68
					c14.06-17.79,43.31-52.57,58.97-69.1c13.97-14.75,42.91-43.4,58.23-56.87c17.15-15.08,52.47-44.22,71.02-57.7
					c17.81-12.94,54.38-37.66,73.42-48.89c19.71-11.63,60.03-33.54,80.81-43.32c17.66-8.31,53.63-23.67,71.96-30.52
					c14.36-5.37,43.37-15.47,58.14-19.73c21.71-6.27,65.56-17.53,87.77-21.94c17.74-3.52,53.49-9.48,71.49-11.45
					c22.5-2.47,67.68-6.22,90.32-6.5c28.05-0.36,84.23,1.13,112.14,3.82c23.01,2.21,68.84,8.58,91.48,13.1
					c20.69,4.13,61.81,13.77,82,19.74c20,5.92,59.67,18.88,78.93,26.71c27.18,11.05,80.72,35.15,106.36,49.18
					c23.5,12.86,69.34,40.6,90.99,56.14c25.55,18.34,75.02,57.23,97.97,78.48c20.38,18.86,59.26,58.49,77.13,79.55
					c17.56,20.69,50.86,63.53,66,85.9c12.27,18.12,35.33,55.3,45.76,74.45c9.98,18.32,28.82,55.54,37.07,74.63
					c9.03,20.87,25.79,63.16,32.67,84.77c8.22,25.85,22.52,78.19,28.01,104.69c4.04,19.5,10.65,58.8,12.85,78.57
					c2.35,21.07,5.97,63.37,6.29,84.56c0.45,29.7-0.92,89.18-3.77,118.76c-2.28,23.67-8.99,70.85-13.72,94.18
					c-63.87,340.73-336.75,641.09-689.37,730.11c-165.75,41.94-335.2,47.5-500.46,10.86c-73.66-16.33-92.68-27.67-168.32-22.11
					c50.55,22.8,120.29,49.35,152.29,58.95c165.19,49.56,352.2,48.71,519.94,8.34c382.22-91.11,678.7-416.5,744.25-784.9
					c4.4-24.99,11.77-75.25,13.64-100.53c2.15-29.13,3.96-87.58,3.01-116.76c-0.7-21.68-3.76-65.01-6.46-86.55
					c-2.6-20.81-8.94-62.33-13.41-82.85c-5.74-26.34-19.05-78.69-27.41-104.39c-7.12-21.89-23.1-65.18-32.31-86.35
					c-8.69-19.96-27.33-59.39-37.8-78.55c-11.11-20.34-35.5-59.9-47.64-79.7c-0.02-0.03-48.9-68.22-66.96-89.69
					c-19.44-23.1-60.78-67.48-83.18-87.99c-23.83-21.81-73.52-63.5-100-82.31c-24.35-17.29-74.69-49.87-101.16-64.02
					c-30.2-16.15-92.38-45.5-124.46-57.92c-21.05-8.15-63.95-22.61-85.79-28.56c-23.61-6.43-71.3-17.82-95.46-21.96
					c-24.9-4.27-75.06-11.04-100.29-12.77c-25.94-1.78-78-3.39-103.99-2.58c-23.75,0.74-71.2,4.03-94.77,6.92
					c-18.14,2.22-54.3,7.7-72.16,11.44c-24.59,5.15-73.44,16.99-97.45,24.24c-16.89,5.1-50.34,16.39-66.71,22.87
					c-20.95,8.28-62.4,25.95-82.53,35.92c-18.77,9.29-55.71,29.05-73.5,39.95c-21.08,12.92-62.36,40.11-82.09,54.84
					c-17.22,12.86-50.74,39.73-66.67,54.02c-16.88,15.16-49.77,46.42-65.12,63c-18.25,19.73-53.17,60.57-69.42,81.84
					c-10.64,13.93-31.09,42.4-40.4,57.19c-15.77,25.06-45.6,76.19-58.83,102.56c-8.59,17.12-24.39,51.98-31.38,69.75
					c-7.85,19.94-22.45,60.24-28.66,80.7c-5.47,18-15.22,54.33-19.3,72.66c-3.4,15.24-9.5,45.88-11.83,61.31
					c-3,19.84-7.89,59.69-9.51,79.68c-1.04,12.88-2.4,38.7-2.72,51.61c-0.27,10.89-0.53,32.67-0.27,43.55
					c0.41,16.82,1.88,50.45,3.31,67.22c1.29,15.2,4.55,45.56,6.82,60.66c2.59,17.15,8.55,51.35,12.32,68.29
					c3.89,17.52,12.62,52.36,17.71,69.59c4.06,13.75,12.84,41.09,17.78,54.58c6.55,17.86,20.37,53.36,28.17,70.75
					c6.25,13.94,19.67,41.46,26.9,54.96c8.07,15.07,46.9,77.59,53.14,83.56C166.27,1543.9,166.28,1543.88,166.29,1543.86z"/>
			</defs>
			<clipPath id="SVGID_5_">
				<use xlink:href="#SVGID_4_"  style="overflow:visible;"/>
			</clipPath>
		</g>
	</g>
</g>
<g id="Bico_-_inferior">
	<linearGradient id="Bico_1_" gradientUnits="userSpaceOnUse" x1="785.5386" y1="558.0995" x2="758.3132" y2="775.915">
		<stop  offset="0" style="stop-color:#DB9965"/>
		<stop  offset="0.2496" style="stop-color:#CA8F63"/>
		<stop  offset="0.6515" style="stop-color:#B8855F"/>
		<stop  offset="1" style="stop-color:#B2815E"/>
	</linearGradient>
	<path id="Bico" class="st2" d="M668.48,712.17c-3.21-6.59,1.9-13.92,9.48-14.51c13.75-1.07,57.76-24.78,78.92-38.29
		c22.29-14.23,70.07-50.25,83.54-67.4c2.23-2.84,6.8-2.5,8.42,0.71c10.14,20.04,19.25,77.79,17.15,113.85
		c-2.09,35.84-15.89,68.19-26.26,86.55c-3.02,5.36-10.67,8.61-16.97,9.47c-17.33,2.37-52.77-3.91-74.52-15.58
		C722.6,773.23,681.17,738.27,668.48,712.17z"/>
	<g id="Sombra">
		<linearGradient id="SVGID_6_" gradientUnits="userSpaceOnUse" x1="785.6411" y1="774.2629" x2="754.8989" y2="627.4937">
			<stop  offset="0" style="stop-color:#B2825F"/>
			<stop  offset="1" style="stop-color:#D19464"/>
		</linearGradient>
		<path class="st3" d="M677.01,707.01c48.67-9.08,128.57-54,166.55-101.96c0.73-0.92,2.23-0.57,2.4,0.58
			c2.2,14.69,13.33,66.79,8.88,109.82c-3.41,33.02-15.57,61.39-23.52,74.43c-1.78,2.92-4.61,4.66-8.14,4.87
			c-14.67,0.88-40.39-1.66-73.22-15.81c-38.08-16.42-66.91-62.2-73.59-70.31C675.88,708.01,676.22,707.15,677.01,707.01z"/>
	</g>
</g>
<g id="Bico_-_superior">
	<linearGradient id="Fundo_2_" gradientUnits="userSpaceOnUse" x1="707.8821" y1="720.4274" x2="547.1771" y2="542.2519">
		<stop  offset="0" style="stop-color:#CE8F4A"/>
		<stop  offset="0.1612" style="stop-color:#D09853"/>
		<stop  offset="0.4319" style="stop-color:#D8B06D"/>
		<stop  offset="0.7767" style="stop-color:#E6D89B"/>
		<stop  offset="1" style="stop-color:#F0F5C0"/>
	</linearGradient>
	<path id="Fundo" class="st4" d="M511.47,848.66c4.42,5.69,13.81,3.59,15.12-3.39c2.66-14.19,6.32-32.59,8.76-40.03
		c5.09-15.53,17.57-45.89,24.9-60.57c6.52-13.07,22.93-35.09,32.67-44.95c9.35-9.46,29.65-26.17,41.32-32.87
		c14.29-8.21,45.14-20.57,60.26-27.27c16.07-7.12,48.24-20.12,62.62-30.02c12.27-8.45,35.37-28.75,43.85-40.72
		c6.83-9.65,21.77-30.28,21.29-41.92c-0.36-8.91-12.16-24.16-17.32-31.59c-6.09-8.78-16.72-27.3-23.1-35.89
		c-8.9-11.99-29.12-34.22-39.34-45.21c-7.84-8.42-21.34-27.93-31.61-33.46c-9.48-5.11-31.87-8.57-42.73-7.95
		c-11.55,0.66-34.68,4.7-45.27,9.14c-17.04,7.15-49.15,26.16-62.66,38.39c-15.58,14.09-42.75,46.31-53.73,63.92
		c-9.71,15.59-26.16,48.48-32.51,65.58c-5.74,15.44-15.92,46.94-18.39,63.16c-2.85,18.71-4.57,56.71-3.25,75.58
		c1.21,17.21,6.85,52.63,11.9,69.19c5.16,16.92,17.18,49.14,27.07,64.02C494.86,827.1,503.91,838.92,511.47,848.66z"/>
	<g id="Layer_17">
		<linearGradient id="SVGID_7_" gradientUnits="userSpaceOnUse" x1="641.2177" y1="639.1991" x2="555.0759" y2="569.1176">
			<stop  offset="0" style="stop-color:#E6B17D"/>
			<stop  offset="0.5436" style="stop-color:#E9BA87"/>
			<stop  offset="1" style="stop-color:#EEC694"/>
		</linearGradient>
		<path class="st5" d="M504.82,835.17c1.63,2.64,6.1,1.55,5.87-1.51c-0.77-10.32,4.82-38.24,5.84-45.62
			c1.96-14.22,10.45-40.54,17.7-53.09c7.39-12.78,23.06-37.55,33.21-48.46c9.73-10.46,30.94-30.21,43.29-37.72
			c6.67-4.06,23.51-10.85,30.54-14.29c13.17-6.44,39.06-20.7,50.04-30.17c16.72-14.42,44.3-45.96,55.89-64.42
			c8.99-14.32,25.4-44.37,29.32-60.65c0.97-4.02,2.36-12.56,0.96-16.46c-3.86-10.73-21.14-27.44-29.16-35.79
			c-6.39-6.66-18.1-20.93-24.85-27.26c-4.17-3.91-12.69-11.94-18.03-14.21c-7.86-3.35-25.27-5.49-33.86-5.82
			c-5.3-0.2-21.19,3.82-21.19,3.82s7.48,2.05,9.5,4.34c3.29,3.71,2.4,14.14,0.45,18.64c-2.33,5.36-15.3,11.04-20.63,13.81
			c-11.82,6.16-29.23,18.33-39.81,26.3c-11.06,8.33-32.61,26.12-41.09,36.87c-13.63,17.28-39.05,55.45-47.87,75.38
			c-7.81,17.64-17.27,54.35-21.32,73.11c-2.31,10.71-5.76,31.62-7.03,42.49c-0.93,7.97-1.01,20.23-3.68,31.01
			c-0.89,3.59-11.6-1.14-17.23-4.09c-1.28-0.67-2.82,0.3-2.67,1.69c0.52,4.76,1.51,13.19,2.18,15.6c1.31,4.71,3.23,14.46,4.33,19.22
			c2.4,10.41,8.08,30.83,12.09,40.77c2.96,7.34,9.57,21.4,13.23,28.82C492.82,811.48,499.26,826.18,504.82,835.17z"/>
	</g>
	<g id="Layer_19">
		<linearGradient id="SVGID_8_" gradientUnits="userSpaceOnUse" x1="657.559" y1="646.0386" x2="641.4647" y2="457.3786">
			<stop  offset="0" style="stop-color:#CE9261"/>
			<stop  offset="0.4695" style="stop-color:#D59D6B"/>
			<stop  offset="1" style="stop-color:#E3B17D"/>
		</linearGradient>
		<path class="st6" d="M505.8,836.68l1.5-2.5c-0.55-0.33,0.76-4.64,0.85-5.26c0.85-6.33,6.6-31.67,9.6-46.61
			c2.61-12.98,7.79-36.27,13.91-48.12c5.53-10.71,20.55-31.41,28.58-40.56c7.94-9.05,27.23-27.58,37.06-34.73
			c9.08-6.6,28.72-17.89,39.03-22.55c19.27-8.71,29.03-26.38,43.53-37.96c14.27-11.4,39-24.06,49.01-34.63c0,0,0,0,0,0
			c8.45-10.12,19.63-34.02,25.73-45.58c4.89-9.27,13.96-26.95,16.62-37.02c0.94-3.55,0.05-25.11,0.15-25.85
			c1.06,0.91,23.92,33.28,28.71,41.21c3.03,5.03,8.23,14.56,11.72,20.35c1.79,2.98,4.12,9.83,3.77,13.25
			c-0.67,6.71-7.35,19.12-11.36,24.67c-6.92,9.59-21.88,28.24-31.04,35.92c-10,8.39-32.35,22.57-44.24,28.26
			c-10.16,4.86-31.7,11.95-42.14,16.23c-9.9,4.06-29.45,12.86-38.73,18.11c-7.22,4.09-21.07,13.19-27.73,18.08
			c-6.91,5.08-20.75,15.3-26.89,21.22c-6.91,6.66-19.51,21.15-25.1,28.87c-5.91,8.16-17.11,24.96-21.61,33.91
			c-2.96,5.9-7.74,18.2-9.84,24.43c-3.22,9.55-11.01,28.54-11.72,38.56c-0.38,5.34-1.85,18.71-2.56,24.95
			C522.45,844.87,507.17,837.5,505.8,836.68z"/>
	</g>
	<g id="Layer_18">
		<linearGradient id="SVGID_9_" gradientUnits="userSpaceOnUse" x1="698.614" y1="668.9825" x2="560.1189" y2="585.9954">
			<stop  offset="0" style="stop-color:#CE9461"/>
			<stop  offset="0.4874" style="stop-color:#D69E6B"/>
			<stop  offset="1" style="stop-color:#E4AF7C"/>
		</linearGradient>
		<path class="st7" d="M508.15,836.66c2.19-7.98,5.94-33.21,6.79-39c2.25-15.22,11.3-46.07,18.23-59.93
			c5.42-10.84,16.73-31.76,24.55-41.17c7.54-9.07,22.08-23.57,31.47-30.89c11.46-8.95,35.88-22.08,48.51-29.46
			c11.19-6.54,36.46-19.89,46.59-27.86c13.18-10.38,36.96-34.13,47.01-47.33c7.97-10.47,22.99-33.02,28.98-44.64
			c4.89-9.48,12.79-30.62,14.34-41.09c0.73-4.92-0.68-17.75-4.02-21.56c-6.14-7.02-19.9-22.99-27.25-29.97
			c-6.78-6.43-18.65-20.81-26.44-26.09c-2.55-1.73-12.63-6.04-15.7-6.63c-7.92-1.52-23.11-4.5-27.83,1.77
			c-4.33,5.75,7.26,20.46,6.98,27.54c-0.19,4.94-7.33,13.14-10.55,17c-5.37,6.46-15.55,19.8-21.08,26.14
			c-7.05,8.09-21.71,23.87-29.64,31.18c-12.95,11.92-43.49,27.44-55.24,40.45c-8.02,8.88-22.79,28.59-27.49,39.43
			c-4.54,10.47-11.78,35.22-15.3,46.04c-2.79,8.56-6.15,28.12-8.35,38c-3.32,14.91-7.48,43.56-12.19,58.12
			c-3.51,10.87-19.87,16.97-30.88,27.5c-0.24,0.23,2.77,14.07,4.62,23C477.05,780.58,501.09,838.08,508.15,836.66z"/>
	</g>
	<g id="Layer_21">
		<linearGradient id="SVGID_10_" gradientUnits="userSpaceOnUse" x1="696.7656" y1="478.7835" x2="658.1412" y2="444.5153">
			<stop  offset="0" style="stop-color:#C1875C"/>
			<stop  offset="0.5233" style="stop-color:#CC8E5F"/>
			<stop  offset="1" style="stop-color:#DD9763"/>
		</linearGradient>
		<path class="st8" d="M676.15,478.74c-12.56,6.85-28.47,0.57-26.17-12.98c1.12-6.58,6.96-16.09,12.08-20.59
			c9.31-8.19,33.02-18.81,34.17,3.28C696.94,462.36,687.34,472.64,676.15,478.74z"/>
	</g>
	<g id="Layer_20">
		<path class="st9" d="M679.36,469.42c13.84-8.63,11.85-28.6-7.77-24.09C658.86,449.64,660.17,476.64,679.36,469.42z"/>
	</g>
</g>
<g id="Asa_-_superior">
	<g id="Layer_36">
		<linearGradient id="SVGID_11_" gradientUnits="userSpaceOnUse" x1="1101.0543" y1="1282.387" x2="546.9671" y2="1996.4061">
			<stop  offset="0" style="stop-color:#366A51"/>
			<stop  offset="0.0351" style="stop-color:#356550"/>
			<stop  offset="0.1443" style="stop-color:#30594D"/>
			<stop  offset="0.2801" style="stop-color:#2D514A"/>
			<stop  offset="0.4708" style="stop-color:#2B4C48"/>
			<stop  offset="1" style="stop-color:#2B4B48"/>
		</linearGradient>
		<path class="st10" d="M811.2,1541.03c13.97-44.47,28.58-74.12,36.17-95.45c7.36-20.68,169.16-27.41,188.3-39.33
			c33.06-20.59,75-116.94,112.66-105.69c10.54,3.15,9.74,32.91,7.14,43.17c-4,15.78-21.3,48.17-26.19,63.72
			C1111.69,1463.45,797.84,1583.55,811.2,1541.03z"/>
	</g>
	<linearGradient id="SVGID_12_" gradientUnits="userSpaceOnUse" x1="533.3699" y1="1112.0433" x2="844.2342" y2="1510.8287">
		<stop  offset="0" style="stop-color:#EEEB4F"/>
		<stop  offset="1" style="stop-color:#F3D445"/>
	</linearGradient>
	<path class="st11" d="M952.22,1255.73c-12.16,28.13-105.57,195.44-123.96,221.56c163.67,0,214.17-61.16,320.85-173.72l5.12,44.65
		c0,0,9.58-34.22,11.62-45.85c2.41-13.7,5.67-41.41,5.53-55.3c-3.82-404.07-521.08-239.31-710.16-41.9
		c-79.25,82.74-183.78,204.12-239.62,296.08c80.28,6.94,181.93-29.85,253.69-68.57c66.8-36.05,224.74-140.58,267.02-171.17
		c-39.56,47.01-174.68,187.15-212.32,243.64c110.71,4.63,228.57-66.48,311.64-138.51C873.4,1339.1,934.42,1287.26,952.22,1255.73z"
		/>
	<g id="Layer_25">
		<linearGradient id="SVGID_13_" gradientUnits="userSpaceOnUse" x1="1194.8623" y1="832.1134" x2="535.5513" y2="1491.4244">
			<stop  offset="0" style="stop-color:#EEED4F"/>
			<stop  offset="0.2838" style="stop-color:#F0E14A"/>
			<stop  offset="0.6582" style="stop-color:#F2D746"/>
			<stop  offset="1" style="stop-color:#F3D445"/>
		</linearGradient>
		<path class="st12" d="M389.08,1295.32c-44.53,43.52-126.88,151.92-157.97,200.27c113.46-5.95,271.62-89.03,327.89-123.43
			c41.44-25.34,138.52-89.2,203.32-131.9c1.11-0.73,2.55,0.37,2.03,1.57c-28.55,65.84-108.77,150.5-127.25,168.17
			c-9.97,9.53-80.12,73.45-94.01,87.19c-1.09,1.08,0.06,2.84,1.55,2.37c73.75-9.8,128.61-32.88,177.82-63.31
			c57.05-35.28,80.91-59.95,133.44-101.06c27.78-21.74,72.67-65.85,99.31-86.52c2.31-1.79,5.64,0.51,4.57,3.17
			c-1.38,3.45-2.3,7.02-3.95,10.25c-60.65,118.88-92.2,180.71-101.63,199.2c-0.57,1.12,0.73,2.2,1.69,1.36
			c19.94-17.2,103.06-64.32,117.58-75.07c67.98-50.31,128.11-117.4,144.06-191.15c17.93-82.9-11.57-152.14-103.78-175.47
			c-86.84-21.97-221.12-18.46-298.36,37.19c41.52-12.66,123.4-31.16,150.91-31.55c21.57-0.3,142.65-4.93,157.79,28.76
			c1.52,3.38-1.32,7.07-5.15,6.79c-290.42-26.99-414.8,333.72-677.23,316.89C320.55,1377.7,389.08,1295.32,389.08,1295.32z"/>
	</g>
	<g id="Layer_23">
		<linearGradient id="SVGID_14_" gradientUnits="userSpaceOnUse" x1="954.6596" y1="1216.9047" x2="1047.0449" y2="1449.1871">
			<stop  offset="0" style="stop-color:#F3D445"/>
			<stop  offset="1" style="stop-color:#F1B241"/>
		</linearGradient>
		<path class="st13" d="M918.08,1341.3c8.9-12.11,44.07-90.06,55.77-105.56c-15.56,53.84-61.67,139.82-84.26,185.88
			c111.26-73.08,255.19-172.9,222.61-310.61c-11.83-50.02-79.34-85.34-129.93-101.5c155.36,8.92,213.14,187.78,172.64,329.92
			l-2.65-47.97c-81.17,93.02-153.93,182.73-319.67,182.73C877.5,1407.8,879.41,1404.72,918.08,1341.3z"/>
	</g>
	<g id="Layer_24">
		<linearGradient id="SVGID_15_" gradientUnits="userSpaceOnUse" x1="589.3449" y1="1571.0741" x2="865.6175" y2="1223.575">
			<stop  offset="0" style="stop-color:#F0C23E"/>
			<stop  offset="0.6113" style="stop-color:#F0C43F"/>
			<stop  offset="0.8311" style="stop-color:#F1CA41"/>
			<stop  offset="0.9876" style="stop-color:#F3D444"/>
			<stop  offset="1" style="stop-color:#F3D644"/>
		</linearGradient>
		<path class="st14" d="M792.07,1386.93c6.1-3.98,97.54-80.5,132.3-106.94c1.55-1.18,3.37,0.93,2.02,2.32
			c-87.99,90.58-222.05,212.86-379.9,221.24c-25.16,1.34,94.25-119.88,102.58-128.88c44.07-47.63,80.85-87.3,125.74-132.82
			c-44.98,89.17-132.34,149.43-193.76,236.31c-1.65,2.44,0.53,5.57,3.52,5.06C709.48,1449.36,699.26,1447.44,792.07,1386.93z"/>
	</g>
</g>
<g id="Layer_26">
	<linearGradient id="SVGID_16_" gradientUnits="userSpaceOnUse" x1="779.8622" y1="1608.3055" x2="854.0496" y2="1731.4923">
		<stop  offset="0" style="stop-color:#4CB667"/>
		<stop  offset="0.1878" style="stop-color:#4BB566"/>
		<stop  offset="0.2554" style="stop-color:#4AAF62"/>
		<stop  offset="0.3026" style="stop-color:#48A55D"/>
		<stop  offset="1" style="stop-color:#459454"/>
	</linearGradient>
	<path class="st15" d="M442.4,1833.92c-5.45,0.24-7.6-6.66-2.89-9.3c47.18-26.53,124.2-61.34,155.07-82.37
		c41.17-28.04,114.22-95.5,149.96-129.67c56.29-53.83,67.45-81.32,67.45-81.32s80.24-2.24,105.99-8.57
		c38.81-9.53,111.14-45.35,144.04-67.24c33.32-22.17,70.35-53.2,70.35-53.2s-21.18,48.43-31.63,66.01
		c-19.35,32.56-72.28,94.75-99.38,121.78c-17.45,17.4-55.27,49.43-74.69,64.81c-46.7,36.99-125.3,81.04-175.17,106.93
		c-32.14,16.69-94.04,38.84-129.42,47.42C585.82,1817.98,487.26,1831.93,442.4,1833.92z"/>
	<g id="Layer_30">
		<linearGradient id="SVGID_17_" gradientUnits="userSpaceOnUse" x1="800.3182" y1="1495.896" x2="857.2145" y2="1717.8662">
			<stop  offset="0" style="stop-color:#4CB765"/>
			<stop  offset="0.1774" style="stop-color:#4AAE61"/>
			<stop  offset="0.6785" style="stop-color:#479C58"/>
			<stop  offset="1" style="stop-color:#469555"/>
		</linearGradient>
		<path class="st16" d="M551.43,1812.65c0,0,96.21-51.24,125.91-71.76c22.41-15.48,64.49-50.11,83.58-69.23
			c10.75-10.76,29.85-34.33,39.96-45.64c13.65-15.27,56.61-59.38,56.61-59.38s-20.68,2.48-27.26,2.79
			c-7.65,0.37-35.8,1.11-35.8,1.11s14.82-15.13,17.4-19.8c1.8-3.26,5.27-14.41,5.27-14.41s38.42,0,54.63,0
			c6.42,0,19.07-0.02,25.37-1.18c12.78-2.35,38.33-7.37,50.7-11.23c10.09-3.15,29.58-11.32,39.05-15.92
			c9.37-4.55,27.94-14.04,36.74-19.52c13.78-8.59,39.93-27.75,52.97-37.34c8.92-6.55,35.64-26.25,35.64-26.25
			s-26.04,28.61-34.71,38.16c-4.79,5.28-14.24,15.94-19.14,21.13c-3.64,3.85-11.26,11.27-14.92,15.11
			c-10.13,10.62-29.56,32.57-39.43,43.42c-3.38,3.72-10.28,11.04-13.65,14.77c-3.93,4.34-12.68,13.99-16.52,18.41
			c-10.21,11.75-29.49,34.59-40.96,45.23c-6.33,5.87-20.5,15.99-27.3,21.36c-23.05,18.21-65.4,58.97-89.63,75.72
			c-20.77,14.36-65.67,38.56-89.1,48.48c-21.64,9.16-65.93,25.53-88.84,31.2C616.73,1803.15,551.43,1812.65,551.43,1812.65z"/>
	</g>
	<g id="Layer_29">
		<linearGradient id="SVGID_18_" gradientUnits="userSpaceOnUse" x1="963.6713" y1="1573.8046" x2="995.3354" y2="1609.6094">
			<stop  offset="0" style="stop-color:#3D6D44"/>
			<stop  offset="0.3429" style="stop-color:#3C6B43"/>
			<stop  offset="0.5835" style="stop-color:#396440"/>
			<stop  offset="0.7921" style="stop-color:#35593C"/>
			<stop  offset="0.9826" style="stop-color:#2E4B35"/>
			<stop  offset="1" style="stop-color:#2D4934"/>
		</linearGradient>
		<path class="st17" d="M812.37,1724.7c-2.37,0.94-4.31-2-2.39-3.64c21.29-18.13,71.55-59.27,87.44-71.77
			c16.87-13.28,43.41-40.25,57.66-53.87c16.69-15.96,46.66-51.1,62.3-68.63c11.85-13.29,37.69-38,48.95-51.75
			c7.97-9.72,49.23-53.75,49.23-53.75c7.64,6.37-9.66,33.5-9.66,33.5s-13.88,25.85-24.37,38.51c-17.6,21.24-50.93,61.39-69.59,81.79
			c-13.12,14.34-41.79,41.79-56.91,54.19c-24.2,19.85-49.19,39.61-76.55,57.13C873.09,1689.86,827.17,1718.84,812.37,1724.7z"/>
	</g>
</g>
<g id="Layer_27">
	<linearGradient id="SVGID_19_" gradientUnits="userSpaceOnUse" x1="428.9191" y1="1651.7709" x2="498.593" y2="1767.463">
		<stop  offset="0" style="stop-color:#4CB667"/>
		<stop  offset="0.1878" style="stop-color:#4BB566"/>
		<stop  offset="0.2554" style="stop-color:#4AAF62"/>
		<stop  offset="0.3026" style="stop-color:#48A55D"/>
		<stop  offset="1" style="stop-color:#459454"/>
	</linearGradient>
	<path class="st18" d="M118.22,1858.58c-3.54,0.34-4.9-4.28-1.69-5.76c20.52-9.47,54.84-25.52,68.82-33.31
		c24.38-13.59,71.13-43.99,93.72-60.15c27.59-19.73,82.38-59.85,107.85-82.04c21.24-18.5,61.99-57.43,80.43-78.49
		c8.61-9.83,30.19-38.63,35.18-45.32c0.65-0.87,1.7-1.34,2.82-1.25c11.15,0.89,71.6,5.41,92.42,0.91
		c33.78-7.3,79.23-15.71,106.87-25.84c20.6-7.55,49.07-20.81,65.9-28.89c3.1-1.49,6.07,2.18,3.83,4.7
		c-13.64,15.3-37.23,41.57-47.73,52.11c-21.55,21.63-66.46,63.29-90.17,82.75c-16.63,13.65-45.94,39.07-66.95,54.1
		c-21.59,15.45-64.41,47.17-87.98,59.71c-28.26,15.03-85.06,44.89-114.98,56.61c-26.14,10.23-79.85,27.73-107.5,33.21
		C229.32,1847.53,153.12,1855.22,118.22,1858.58z"/>
	<g id="Layer_31">
		<linearGradient id="SVGID_20_" gradientUnits="userSpaceOnUse" x1="430.4865" y1="1621.6498" x2="591.486" y2="1782.6492">
			<stop  offset="0" style="stop-color:#4DB765"/>
			<stop  offset="0.193" style="stop-color:#4CB564"/>
			<stop  offset="0.2625" style="stop-color:#4BAF61"/>
			<stop  offset="0.3105" style="stop-color:#48A55D"/>
			<stop  offset="0.3881" style="stop-color:#469656"/>
			<stop  offset="0.4849" style="stop-color:#458B51"/>
			<stop  offset="0.6213" style="stop-color:#44864F"/>
			<stop  offset="1" style="stop-color:#44844E"/>
		</linearGradient>
		<path class="st19" d="M213.28,1840.15l49.82-32.98l113.58-77.96l121.94-91.95l52.81-50.94l-25.28-0.7l-36.15-2.33l14.55-23.65
			l48.9,5.3l74.3-13.25c0,0,83.32-19.49,76.86-19.49l51.61-20.52l-33.31,37.85l-28.72,26.08l-53.44,50.27l-67.7,53.02l-66.67,50.75
			l-77.9,44.24l-79.6,35.46L213.28,1840.15z"/>
	</g>
</g>
<g id="Asa_-_inferior">
	<linearGradient id="SVGID_21_" gradientUnits="userSpaceOnUse" x1="210.2488" y1="1598.736" x2="289.5596" y2="1730.4301">
		<stop  offset="0" style="stop-color:#4CB667"/>
		<stop  offset="0.1878" style="stop-color:#4BB566"/>
		<stop  offset="0.2554" style="stop-color:#4AAF62"/>
		<stop  offset="0.3026" style="stop-color:#48A55D"/>
		<stop  offset="1" style="stop-color:#459454"/>
	</linearGradient>
	<path class="st20" d="M16.46,1838.5c-4.73,1.44-8.62-3.73-5.7-7.57c19.72-25.91,65.57-86.57,81.77-111.45
		c20.28-31.14,64.22-115.73,85.22-156.65c6.93-13.51,22.04-21.31,37.66-19.48c25.66,3,63.3,6.63,79.45,4.35
		c37.37-5.27,108.25-32.08,144.28-42.96c9.38-2.83,30.37-9.27,44.96-13.76c4.35-1.34,7.77,3.66,4.75,6.94
		c-9.99,10.87-24.31,26.36-30.9,33.14c-22.36,22.98-68.77,67.44-92.68,88.95c-31.14,28.03-94.09,83.65-128.3,108.2
		c-30.03,21.55-92.08,62.75-125.98,78.2C91.76,1815.18,41.64,1830.83,16.46,1838.5z"/>
	<g id="Layer_32">
		<linearGradient id="SVGID_22_" gradientUnits="userSpaceOnUse" x1="181.8862" y1="1542.5226" x2="239.3056" y2="1620.1832">
			<stop  offset="0" style="stop-color:#4CB666"/>
			<stop  offset="0.0701" style="stop-color:#4BB063"/>
			<stop  offset="0.4073" style="stop-color:#479C5A"/>
			<stop  offset="0.7248" style="stop-color:#449054"/>
			<stop  offset="1" style="stop-color:#448C52"/>
		</linearGradient>
		<path class="st21" d="M59.04,1816.17c0,0,38.06-43.81,50.67-58.48c20.51-23.84,61.43-71.6,81.68-95.65
			c18.64-22.14,74.02-88.95,74.02-88.95s-28.32-1.56-37.77-1.68c-9.19-0.12-35.82-7.94-35.82-7.94l7.43-10.86
			c0,0,33.69,4.08,44.99,4.59c10.58,0.49,31.87,0.96,42.37-0.42c16.61-2.18,49.05-10.77,65.08-15.45
			c22.62-6.61,67.86-19.96,89.98-27.98c8.55-3.1,33.63-13.78,33.63-13.78s-49.51,51-66.39,67.66
			c-11.07,10.93-33.8,32.21-44.99,43.02c-9.94,9.61-29.13,29.47-39.31,38.84c-14.32,13.18-44,38.53-59.4,50.54
			c-12.8,9.98-38.88,29.39-52.41,38.43c-15.47,10.33-46.71,30.72-63.33,39.26C127.62,1788.54,59.04,1816.17,59.04,1816.17z"/>
	</g>
</g>
<g id="Corpo">
	<path class="st22" d="M631.86,323.85c132.72-35.98,212.79,104.82,267.39,231.77c66.4,159.57,5.42,306.41-103.4,412.47
		c311.52-83.29,519.86,103.74,411.87,422.17c-60.01,195.38-286.83,362.37-489.67,470.2c177.21,71.97,456.03-109.88,489.41-156.95
		c0,0-81.92,100.73-134.51,140.22c-14.44,10.85-57.19,44.09-57.19,44.09c277.26-77.69,469.25-337.94,537.74-599.49
		c5.04,150.26-60.54,342.58-176.66,463.16c278.65-179.97,377.05-537.73,300.2-846.74l50.01,78.2
		c-16.57-166.52-81.26-367.99-173.13-517.63l88.21,40.02c-49.33-75.93-144.74-220.78-250.27-278.03
		C1172.11,95.12,765.68,87.64,631.86,323.85z"/>
	<g id="Sombra_-_2">
		<linearGradient id="SVGID_23_" gradientUnits="userSpaceOnUse" x1="1045.5764" y1="1145.2689" x2="1654.3131" y2="1664.3466">
			<stop  offset="0" style="stop-color:#F0BF3F"/>
			<stop  offset="0.5085" style="stop-color:#F0AF3F"/>
			<stop  offset="1" style="stop-color:#F0A340"/>
		</linearGradient>
		<path class="st23" d="M1255.16,1189.87c-30.89,354.67-247.32,509.1-528.51,666.87c82.28,35.13,208.33-6.29,271.95-31.53
			c99.91-39.64,129.56-73.63,208.85-123.44c-22.16,56.47-117.68,130.5-153.55,165.31c91.13-28.74,197.05-103.92,264.48-172.74
			c78.87-80.5,129.25-154.13,185.58-280.38c26.98-60.48,33.8-93.02,43.3-121.49c2.02-6.07,11.43-4.61,11.42,1.76
			c-0.02,65.03-4.08,104.61-32.11,201.34c-12.2,42.09-31.83,87.27-50.98,124.87c-14.07,27.63-72.17,107.43-72.17,107.43
			c72.31-53.69,153.7-140.95,204.18-241.92c34.88-69.77,70.97-169.77,80.33-246.39c12.86-105.26,10.29-167.34,3.95-225.59
			c-4.55-41.79-14.08-81.89-16.03-99.85c-1.3-11.98,4.35-10.45,10.31-1.97c16.28,23.19,35.14,54.7,37.68,60.8
			c-14.26-66.61-25.22-144.41-74.18-200.12c0,0-99.4-170.03-99.4-170.03l-66.95-67.69l40.98,161.44
			c13.84,45.64,49.25,145.95,50.69,193.82l-43.78-89.04l-61.9-66.17l24.37,127.1c4.12,41.76,22.58,120.44,27.53,162.39l-29.51,79.34
			c-3.36-43.91-23.35-140.26-33.83-183.83c0,0-36.89-53.41-36.89-53.41l-65.78-27.32l27.36,62.54l26.86,61.8
			c9.4,63.5,18.57,145.4,12.17,209.08c0,0-33.06,92.66-33.06,92.66l-56.82,92.38l-87.06,100.94c-17.12,15.7-53.88,49.3-71.71,64.09
			c19.55-40.74,64.1-133.69,84.06-175.23c0,0,7.27-43.02,7.27-43.02l0.86-61.57L1255.16,1189.87z"/>
	</g>
	<g id="Sombra_-_1">
		<linearGradient id="SVGID_24_" gradientUnits="userSpaceOnUse" x1="827.9395" y1="654.4789" x2="1600.6738" y2="1058.9294">
			<stop  offset="0" style="stop-color:#F4D546"/>
			<stop  offset="1" style="stop-color:#F2BA3E"/>
		</linearGradient>
		<path class="st24" d="M713.54,315.62c-3-1.25-3.58-5.07-1.07-7.08c17.75-14.23,74.46-58.86,104.06-72.43
			c66.17-36.34,169.58-55.43,243.38-54.78c156.05-5.42,306.79,84.52,410.52,173.44c-4.95-27.47-38.62-75.76-61.79-102.22
			c0.2-4.22,72.35,52.82,94.64,73.04c35.44,34.66,110.05,146.04,127.26,169.61c-149.82-92.39-48.53,23.84-22.43,92.13
			c30.53,69.84,83.88,191.86,89.71,269.73c-19.08-30.59-65.1-110.67-88.2-148.38c-25.18-41.35-110.14-150.84-126.3-171.86
			c58.33,116.91,93.5,213.54,93.5,376.98c0,0-20.35-40.38-29.66-60.37c-18.18-39.01-43.72-80-70.64-96.85
			c39.57,65.76,63.77,164.13,61.41,241.69c-4.92,62.16-21.82,97.39-48.68,119.98c-0.25-70.36-23.69-164.78-69.96-230.46
			c-10.67-15.15-64.09-46.64-64.09-46.64c16.42,21.1,56.6,83.59,64.46,117.06c22.37,99.33,15.18,213.67-25.74,307.92
			c-29.25,82.61-188.62,236.55-230.92,270.18c72.18-122.85,100.46-205.93,92.16-344.74l-21.7,128.91
			c10.21-69.65,12.44-221.68-53.62-285.17c-96.51-103.9-238.59-108.15-367.71-77.5c96.21-103.86,147.89-191.97,113.2-338.63
			c-10.31-71.18-46.79-141.2-90.36-198.91C810.67,380.98,772.65,333.27,713.54,315.62z"/>
	</g>
	<g id="Sombra_-_3">
		<linearGradient id="SVGID_25_" gradientUnits="userSpaceOnUse" x1="825.9966" y1="884.3885" x2="1104.9874" y2="797.9502">
			<stop  offset="0" style="stop-color:#F3B342"/>
			<stop  offset="1" style="stop-color:#F0D244"/>
		</linearGradient>
		<path class="st25" d="M813.54,958.47c-1.69,0.39-3.16-1.73-1.81-2.77c16.53-12.86,66.94-69.96,81.49-92.74
			c23.67-37.06,56.43-130.53,58.25-135.76c0.04-0.13,0.17-0.17,0.28-0.09c3.74,2.59,57.78,39.91,77.11,49.79
			c16.43,8.4,51.04,22.47,69.2,26.47c14.39,3.17,37.32,3.74,50.34,3.16c5.12-0.23,6.26,3.83,3.37,8.4
			c-15.47,24.49-31.01,41.6-41.02,51.17c-18.11,17.32-44.04,42.62-74.31,65.35c-4.53,3.4-12.42,8.25-17.55,10.76
			c-3.82,1.87-8.02,3.78-10.68,3.51c-16.62-1.73-37.88-2.25-49.44-3.02c-20.76-1.37-53.2,1.39-79.86,3.16
			C865.63,946.75,827.59,955.25,813.54,958.47z"/>
	</g>
	<g id="Sombra_-_4">
		<linearGradient id="SVGID_26_" gradientUnits="userSpaceOnUse" x1="940.4492" y1="244.8558" x2="989.3844" y2="318.6237">
			<stop  offset="0" style="stop-color:#F3B53F"/>
			<stop  offset="0.1939" style="stop-color:#F3B740"/>
			<stop  offset="0.2431" style="stop-color:#F3B840"/>
			<stop  offset="0.2922" style="stop-color:#F3B940"/>
			<stop  offset="0.3293" style="stop-color:#F3BA40"/>
			<stop  offset="0.3663" style="stop-color:#F3BA40"/>
			<stop  offset="0.3756" style="stop-color:#F3BB40"/>
			<stop  offset="0.3848" style="stop-color:#F3BB41"/>
			<stop  offset="0.4033" style="stop-color:#F3BB41"/>
			<stop  offset="0.4404" style="stop-color:#F3BC41"/>
			<stop  offset="0.6636" style="stop-color:#F3C442"/>
			<stop  offset="1" style="stop-color:#F3D345"/>
		</linearGradient>
		<path class="st26" d="M855.87,436.73c-5.34,8.47-54.41-55.95-44.67-60.83c82.05-143.54,311.77-149.04,419.43-30.41
			c8.45,32.62-25.55,13.04-37.71,1.95c-62.78-51.58-106.76-70.02-188.07-57.65c-71.18,10.83-67.33,27.91-110.68,86.11
			C890.87,380.32,859.35,431.22,855.87,436.73z"/>
	</g>
</g>
<g id="Olho">
	<g id="Sombra_-_fundo">
		<path class="st27" d="M1145.46,510.44c30.32-34.48,30.32-58.54,31.68-83.76c2.42-44.83-15.48-61.55-25.78-80.24
			c-11.14-20.2-42.2-38.5-58.94-43.6c-28.77-8.77-71.1-1.07-91.35,9.16c-20.94,10.57,2.27,22.16-66.14,64.81
			c-6.37,3.97-9.22,15.28-11.46,26.93c-1.56,8.09-2.87,17.35-1.64,32.88c0.8,10.1,8.62,29.56,12.28,39.06
			c9.04,23.45,43.79,52.7,64.01,62.7c12.01,5.94,39.53,9.7,53.04,10.02c7.46,0.17,22.54,0.09,29.8-1.57
			c10.75-2.45,29.39-7.39,40.93-15.97C1127.8,526.48,1140.65,515.91,1145.46,510.44z"/>
	</g>
	<path id="Fundo_-_olho" class="st28" d="M1112.52,527.51c123.1-76.17,41.06-277.07-115.13-219.59
		c-55.69,22.6-87.08,81.7-62.93,152.68C962.24,536.08,1054.97,562.71,1112.52,527.51z"/>
	<g id="Olho_1_">
		<path class="st29" d="M1120.51,398.43c-22.73-102.42-175.18-84.77-170.89,23.82c1.72,62.49,75.81,90.52,127.22,69.26
			C1112.56,476.41,1128.44,438.9,1120.51,398.43z"/>
	</g>
	<g id="Ãris">
		<linearGradient id="SVGID_27_" gradientUnits="userSpaceOnUse" x1="976.8414" y1="376.9258" x2="1039.8519" y2="409.5512">
			<stop  offset="0" style="stop-color:#DCE8A8"/>
			<stop  offset="0.2233" style="stop-color:#D5E1A4"/>
			<stop  offset="0.5632" style="stop-color:#C1CE98"/>
			<stop  offset="0.9756" style="stop-color:#A0B186"/>
			<stop  offset="1" style="stop-color:#9EAF85"/>
		</linearGradient>
		<path class="st30" d="M1034.39,400.61c7.54-22.92-22.08-43.45-46.01-27.9c-2.04,1.32-3.85,2.98-5.28,4.9
			c-18.31,24.43,19.04,53.91,43.27,34.29C1030.06,408.92,1032.94,405.01,1034.39,400.61z"/>
	</g>
	<g id="Sombra_1_">
		<linearGradient id="SVGID_28_" gradientUnits="userSpaceOnUse" x1="1023.6186" y1="419.693" x2="1002.6749" y2="383.9595">
			<stop  offset="0" style="stop-color:#43614A"/>
			<stop  offset="0.346" style="stop-color:#45634C"/>
			<stop  offset="0.5189" style="stop-color:#4D6950"/>
			<stop  offset="0.6535" style="stop-color:#5B7458"/>
			<stop  offset="0.7683" style="stop-color:#6F8565"/>
			<stop  offset="0.8704" style="stop-color:#899C76"/>
			<stop  offset="0.9622" style="stop-color:#ABBA8E"/>
			<stop  offset="1" style="stop-color:#BCCA9B"/>
		</linearGradient>
		<path class="st31" d="M1005.99,420.28c-8.83-0.66-16.84-5.3-21.65-10.6c36.87-14.15,44.63-33.71,45.46-34.31
			c3.74,3.24,5.07,6.57,6.21,9.24c2.2,5.13,1.82,10.59,0,16.98c-2.92,10.25-12.93,15.97-18.09,17.39
			C1015.13,419.77,1009.46,420.54,1005.99,420.28z"/>
	</g>
	<g id="Brilho">
		<linearGradient id="SVGID_29_" gradientUnits="userSpaceOnUse" x1="993.5252" y1="374.1605" x2="1019.7778" y2="410.1653">
			<stop  offset="0" style="stop-color:#BCCA9C"/>
			<stop  offset="0.0871" style="stop-color:#ADBC90"/>
			<stop  offset="0.3456" style="stop-color:#879A75"/>
			<stop  offset="0.5908" style="stop-color:#6D8364"/>
			<stop  offset="0.8154" style="stop-color:#5D765A"/>
			<stop  offset="1" style="stop-color:#587257"/>
		</linearGradient>
		<path class="st32" d="M985,409.44c28.72-10.9,40.46-26.29,44.8-33.96c0.05-0.09-0.29-0.3-0.29-0.3s-11.7-4.12-21.91-2.06
			c-9.3,1.88-16.63,5.73-21.64,11.98C978.12,394.87,981.75,410.67,985,409.44z"/>
	</g>
</g>
</svg>
