<?xml version="1.0" encoding="utf-8"?>
<!-- Generator: Adobe Adobe Illustrator 24.2.0, SVG Export Plug-In . SVG Version: 6.00 Build 0)  -->
<svg version="1.1" xmlns="http://www.w3.org/2000/svg" xmlns:xlink="http://www.w3.org/1999/xlink" x="0px" y="0px" width="2000px"
	 height="2000px" viewBox="0 0 2000 2000" style="enable-background:new 0 0 2000 2000;" xml:space="preserve">
<style type="text/css">
	.st0{fill:#273843;}
	.st1{fill:url(#Bico_1_);}
	.st2{fill:url(#SVGID_5_);}
	.st3{fill:url(#Fundo_2_);}
	.st4{fill:url(#SVGID_6_);}
	.st5{fill:url(#SVGID_7_);}
	.st6{fill:url(#SVGID_8_);}
	.st7{fill:url(#SVGID_9_);}
	.st8{fill:#4A4D4E;}
	.st9{fill:url(#SVGID_10_);}
	.st10{fill:url(#SVGID_11_);}
	.st11{fill:url(#SVGID_12_);}
	.st12{fill:url(#SVGID_13_);}
	.st13{fill:url(#SVGID_14_);}
	.st14{fill:url(#SVGID_15_);}
	.st15{fill:url(#SVGID_16_);}
	.st16{fill:url(#SVGID_17_);}
	.st17{fill:url(#SVGID_18_);}
	.st18{fill:url(#SVGID_19_);}
	.st19{fill:url(#SVGID_20_);}
	.st20{fill:url(#SVGID_21_);}
	.st21{fill:#EEEE51;stroke:#EEEF51;stroke-width:0.7;stroke-miterlimit:10;}
	.st22{fill:url(#SVGID_22_);}
	.st23{fill:url(#SVGID_23_);}
	.st24{fill:url(#SVGID_24_);}
	.st25{fill:url(#SVGID_25_);}
	.st26{fill:#F3AB40;stroke:#F3AB40;stroke-width:0.7;stroke-miterlimit:10;}
	.st27{fill:#F0F6B9;stroke:#ECF4B8;stroke-width:0.8;stroke-miterlimit:10;}
	.st28{fill:#2A3F46;stroke:#294046;stroke-miterlimit:10;}
	.st29{fill:url(#SVGID_26_);stroke:#DCE8A8;stroke-miterlimit:10;}
	.st30{fill:url(#SVGID_27_);}
	.st31{fill:url(#SVGID_28_);}
	.st32{font-family:'Futura-CondensedMedium';}
	.st33{font-size:200px;}
	.st34{font-family:'AvenirNext-Regular';}
	.st35{font-size:70px;}
</style>
<g id="Layer_38">
	<ellipse class="st0" cx="533.98" cy="1002.3" rx="485.68" ry="485.57"/>
</g>
<g id="Fundo_1_">
	<g>
		<g>
			<defs>
				<ellipse id="SVGID_1_" cx="528.3" cy="1008.36" rx="491.74" ry="491.64"/>
			</defs>
			<clipPath id="SVGID_2_">
				<use xlink:href="#SVGID_1_"  style="overflow:visible;"/>
			</clipPath>
		</g>
	</g>
</g>
<g id="Arco">
	<g>
		<g>
			<defs>
				<path id="SVGID_3_" d="M113.14,1271.93l12.93-29.55c0,0-14.41-25.61-18.78-34.35c-3.33-6.67-9.52-20.23-12.33-27.12
					c-3.1-7.6-8.95-22.92-11.55-30.68c-2.1-6.26-6.03-18.86-7.73-25.22c-2.13-7.98-6.02-24.04-7.64-32.13
					c-1.29-6.42-3.57-19.31-4.46-25.79c-1.03-7.54-2.79-22.67-3.35-30.26c-0.58-7.88-1.33-23.66-1.43-31.56
					c-0.07-5.37-0.01-16.11,0.22-21.47c0.33-8.04,1.27-24.11,2.11-32.11c0.86-8.27,3.03-24.76,4.47-32.95
					c1.36-7.74,4.46-23.16,6.36-30.8c2.05-8.28,6.54-24.75,9.21-32.86c3.23-9.79,10.3-29.21,14.32-38.73
					c3.14-7.43,9.78-22.17,13.54-29.34c5.95-11.37,18.59-33.77,25.61-44.57c5.31-8.17,16.53-24.16,22.6-31.84
					c7.03-8.89,21.66-26.29,29.48-34.55c6.98-7.37,21.46-21.7,29.11-28.43c8.57-7.54,26.23-22.11,35.51-28.85
					c8.9-6.47,27.19-18.83,36.71-24.44c9.86-5.81,30.01-16.77,40.4-21.66c8.83-4.15,26.82-11.84,35.98-15.26
					c7.18-2.68,21.69-7.73,29.07-9.86c10.86-3.13,32.78-8.77,43.89-10.97c8.87-1.76,26.74-4.74,35.75-5.73
					c11.25-1.23,33.84-3.11,45.16-3.25c14.02-0.18,42.11,0.57,56.07,1.91c11.5,1.11,34.42,4.29,45.74,6.55
					c10.35,2.06,30.9,6.88,41,9.87c10,2.96,29.84,9.44,39.47,13.35c13.59,5.52,40.36,17.57,53.18,24.59
					c11.75,6.43,34.67,20.3,45.5,28.07c12.78,9.17,37.51,28.61,48.99,39.24c10.19,9.43,29.63,29.24,38.57,39.77
					c8.78,10.35,25.43,31.77,33,42.95c6.13,9.06,17.66,27.65,22.88,37.22c4.99,9.16,14.41,27.77,18.54,37.31
					c4.51,10.44,12.9,31.58,16.33,42.39c4.11,12.92,11.26,39.1,14,52.35c2.02,9.75,5.32,29.4,6.43,39.29
					c1.18,10.54,2.98,31.68,3.14,42.28c0.22,14.85-0.46,44.59-1.88,59.38c-1.14,11.84-4.5,35.42-6.86,47.09
					c-31.94,170.37-168.37,320.54-344.69,365.06c-82.87,20.97-167.6,23.75-250.23,5.43c-36.83-8.17-46.34-13.83-84.16-11.05
					c25.27,11.4,60.15,24.67,76.15,29.47c82.6,24.78,176.1,24.36,259.97,4.17c191.11-45.55,339.35-208.25,372.13-392.45
					c2.2-12.5,5.88-37.62,6.82-50.26c1.08-14.56,1.98-43.79,1.51-58.38c-0.35-10.84-1.88-32.51-3.23-43.28
					c-1.3-10.41-4.47-31.17-6.71-41.42c-2.87-13.17-9.53-39.35-13.7-52.19c-3.56-10.95-11.55-32.59-16.16-43.18
					c-4.34-9.98-13.66-29.7-18.9-39.28c-5.56-10.17-17.75-29.95-23.82-39.85c-0.01-0.02-24.45-34.11-33.48-44.84
					c-9.72-11.55-30.39-33.74-41.59-43.99c-11.91-10.91-36.76-31.75-50-41.16c-12.17-8.65-37.34-24.93-50.58-32.01
					c-15.1-8.07-46.19-22.75-62.23-28.96c-10.53-4.07-31.97-11.31-42.9-14.28c-11.8-3.21-35.65-8.91-47.73-10.98
					c-12.45-2.13-37.53-5.52-50.15-6.38c-12.97-0.89-39-1.7-52-1.29c-11.87,0.37-35.6,2.01-47.38,3.46
					c-9.07,1.11-27.15,3.85-36.08,5.72c-12.29,2.57-36.72,8.49-48.72,12.12c-8.45,2.55-25.17,8.2-33.35,11.43
					c-10.47,4.14-31.2,12.97-41.27,17.96c-9.39,4.65-27.85,14.52-36.75,19.98c-10.54,6.46-31.18,20.05-41.05,27.42
					c-8.61,6.43-25.37,19.86-33.33,27.01c-8.44,7.58-24.89,23.21-32.56,31.5c-9.13,9.87-26.59,30.28-34.71,40.92
					c-5.32,6.97-15.55,21.2-20.2,28.59c-7.89,12.53-22.8,38.1-29.42,51.28c-4.29,8.56-12.2,25.99-15.69,34.87
					c-3.92,9.97-11.22,30.12-14.33,40.35c-2.73,9-7.61,27.17-9.65,36.33c-1.7,7.62-4.75,22.94-5.92,30.66
					c-1.5,9.92-3.95,29.85-4.75,39.84c-0.52,6.44-1.2,19.35-1.36,25.81c-0.13,5.44-0.27,16.33-0.13,21.78
					c0.21,8.41,0.94,25.22,1.65,33.61c0.65,7.6,2.27,22.78,3.41,30.33c1.29,8.57,4.28,25.67,6.16,34.15
					c1.95,8.76,6.31,26.18,8.85,34.8c2.03,6.88,6.42,20.55,8.89,27.29c3.28,8.93,10.18,26.68,14.08,35.38
					c3.13,6.97,9.84,20.73,13.45,27.48c4.03,7.54,23.45,38.79,26.57,41.78C113.14,1271.95,113.14,1271.94,113.14,1271.93z"/>
			</defs>
			<clipPath id="SVGID_4_">
				<use xlink:href="#SVGID_3_"  style="overflow:visible;"/>
			</clipPath>
		</g>
	</g>
</g>
<g id="Bico_-_inferior">
	<linearGradient id="Bico_1_" gradientUnits="userSpaceOnUse" x1="422.7693" y1="779.0497" x2="409.1566" y2="887.9575">
		<stop  offset="0" style="stop-color:#DB9965"/>
		<stop  offset="0.2496" style="stop-color:#CA8F63"/>
		<stop  offset="0.6515" style="stop-color:#B8855F"/>
		<stop  offset="1" style="stop-color:#B2815E"/>
	</linearGradient>
	<path id="Bico" class="st1" d="M364.24,856.09c-1.6-3.29,0.95-6.96,4.74-7.25c6.87-0.53,28.88-12.39,39.46-19.14
		c11.15-7.11,35.04-25.13,41.77-33.7c1.12-1.42,3.4-1.25,4.21,0.35c5.07,10.02,9.63,38.89,8.58,56.93
		c-1.04,17.92-7.95,34.09-13.13,43.28c-1.51,2.68-5.33,4.3-8.48,4.73c-8.67,1.18-26.38-1.96-37.26-7.79
		C391.3,886.62,370.59,869.13,364.24,856.09z"/>
	<g id="Sombra">
		<linearGradient id="SVGID_5_" gradientUnits="userSpaceOnUse" x1="422.8206" y1="887.1315" x2="407.4495" y2="813.7468">
			<stop  offset="0" style="stop-color:#B2825F"/>
			<stop  offset="1" style="stop-color:#D19464"/>
		</linearGradient>
		<path class="st2" d="M368.5,853.5c24.34-4.54,64.29-27,83.27-50.98c0.36-0.46,1.11-0.28,1.2,0.29c1.1,7.35,6.67,33.39,4.44,54.91
			c-1.71,16.51-7.79,30.69-11.76,37.22c-0.89,1.46-2.3,2.33-4.07,2.43c-7.34,0.44-20.19-0.83-36.61-7.91
			c-19.04-8.21-33.46-31.1-36.79-35.16C367.94,854.01,368.11,853.58,368.5,853.5z"/>
	</g>
</g>
<g id="Bico_-_superior">
	<linearGradient id="Fundo_2_" gradientUnits="userSpaceOnUse" x1="383.9411" y1="860.2137" x2="303.5886" y2="771.126">
		<stop  offset="0" style="stop-color:#CE8F4A"/>
		<stop  offset="0.1612" style="stop-color:#D09853"/>
		<stop  offset="0.4319" style="stop-color:#D8B06D"/>
		<stop  offset="0.7767" style="stop-color:#E6D89B"/>
		<stop  offset="1" style="stop-color:#F0F5C0"/>
	</linearGradient>
	<path id="Fundo" class="st3" d="M285.74,924.33c2.21,2.85,6.91,1.79,7.56-1.7c1.33-7.09,3.16-16.3,4.38-20.01
		c2.54-7.76,8.79-22.94,12.45-30.29c3.26-6.53,11.46-17.55,16.33-22.47c4.67-4.73,14.83-13.08,20.66-16.44
		c7.14-4.1,22.57-10.28,30.13-13.63c8.04-3.56,24.12-10.06,31.31-15.01c6.13-4.23,17.69-14.37,21.92-20.36
		c3.41-4.82,10.88-15.14,10.65-20.96c-0.18-4.46-6.08-12.08-8.66-15.8c-3.05-4.39-8.36-13.65-11.55-17.95
		c-4.45-6-14.56-17.11-19.67-22.6c-3.92-4.21-10.67-13.97-15.8-16.73c-4.74-2.55-15.93-4.28-21.37-3.97
		c-5.77,0.33-17.34,2.35-22.64,4.57c-8.52,3.57-24.57,13.08-31.33,19.19c-7.79,7.04-21.38,23.15-26.86,31.96
		c-4.86,7.79-13.08,24.24-16.25,32.79c-2.87,7.72-7.96,23.47-9.2,31.58c-1.43,9.36-2.29,28.35-1.62,37.79
		c0.6,8.61,3.43,26.31,5.95,34.6c2.58,8.46,8.59,24.57,13.54,32.01C277.43,913.55,281.95,919.46,285.74,924.33z"/>
	<g id="Layer_17">
		<linearGradient id="SVGID_6_" gradientUnits="userSpaceOnUse" x1="350.6089" y1="819.5995" x2="307.538" y2="784.5588">
			<stop  offset="0" style="stop-color:#E6B17D"/>
			<stop  offset="0.5436" style="stop-color:#E9BA87"/>
			<stop  offset="1" style="stop-color:#EEC694"/>
		</linearGradient>
		<path class="st4" d="M282.41,917.58c0.82,1.32,3.05,0.77,2.94-0.76c-0.38-5.16,2.41-19.12,2.92-22.81
			c0.98-7.11,5.22-20.27,8.85-26.54c3.69-6.39,11.53-18.77,16.6-24.23c4.86-5.23,15.47-15.1,21.65-18.86
			c3.33-2.03,11.75-5.42,15.27-7.15c6.58-3.22,19.53-10.35,25.02-15.09c8.36-7.21,22.15-22.98,27.95-32.21
			c4.5-7.16,12.7-22.19,14.66-30.33c0.48-2.01,1.18-6.28,0.48-8.23c-1.93-5.36-10.57-13.72-14.58-17.9
			c-3.2-3.33-9.05-10.46-12.42-13.63c-2.08-1.96-6.35-5.97-9.01-7.11c-3.93-1.67-12.63-2.75-16.93-2.91
			c-2.65-0.1-10.6,1.91-10.6,1.91s3.74,1.03,4.75,2.17c1.64,1.86,1.2,7.07,0.23,9.32c-1.16,2.68-7.65,5.52-10.32,6.91
			c-5.91,3.08-14.62,9.17-19.91,13.15c-5.53,4.16-16.31,13.06-20.54,18.43c-6.81,8.64-19.52,27.73-23.93,37.69
			c-3.91,8.82-8.64,27.17-10.66,36.56c-1.15,5.36-2.88,15.81-3.51,21.25c-0.46,3.98-0.5,10.11-1.84,15.51
			c-0.44,1.8-5.8-0.57-8.62-2.05c-0.64-0.34-1.41,0.15-1.34,0.85c0.26,2.38,0.75,6.6,1.09,7.8c0.65,2.35,1.62,7.23,2.17,9.61
			c1.2,5.2,4.04,15.42,6.04,20.39c1.48,3.67,4.79,10.7,6.62,14.41C276.41,905.74,279.63,913.09,282.41,917.58z"/>
	</g>
	<g id="Layer_19">
		<linearGradient id="SVGID_7_" gradientUnits="userSpaceOnUse" x1="358.7795" y1="823.0193" x2="350.7324" y2="728.6893">
			<stop  offset="0" style="stop-color:#CE9261"/>
			<stop  offset="0.4695" style="stop-color:#D59D6B"/>
			<stop  offset="1" style="stop-color:#E3B17D"/>
		</linearGradient>
		<path class="st5" d="M282.9,918.34l0.75-1.25c-0.28-0.17,0.38-2.32,0.42-2.63c0.43-3.16,3.3-15.84,4.8-23.3
			c1.3-6.49,3.89-18.14,6.95-24.06c2.77-5.36,10.27-15.7,14.29-20.28c3.97-4.52,13.61-13.79,18.53-17.36
			c4.54-3.3,14.36-8.95,19.52-11.27c9.64-4.35,14.51-13.19,21.76-18.98c7.13-5.7,19.5-12.03,24.5-17.31c0,0,0,0,0,0
			c4.23-5.06,9.81-17.01,12.86-22.79c2.45-4.64,6.98-13.47,8.31-18.51c0.47-1.77,0.02-12.56,0.07-12.93
			c0.53,0.45,11.96,16.64,14.35,20.6c1.52,2.52,4.12,7.28,5.86,10.18c0.9,1.49,2.06,4.92,1.89,6.63c-0.34,3.35-3.68,9.56-5.68,12.33
			c-3.46,4.79-10.94,14.12-15.52,17.96c-5,4.19-16.17,11.28-22.12,14.13c-5.08,2.43-15.85,5.97-21.07,8.11
			c-4.95,2.03-14.73,6.43-19.36,9.06c-3.61,2.04-10.54,6.6-13.86,9.04c-3.46,2.54-10.38,7.65-13.44,10.61
			c-3.46,3.33-9.76,10.58-12.55,14.43c-2.96,4.08-8.56,12.48-10.8,16.96c-1.48,2.95-3.87,9.1-4.92,12.22
			c-1.61,4.78-5.51,14.27-5.86,19.28c-0.19,2.67-0.93,9.36-1.28,12.48C291.22,922.43,283.58,918.75,282.9,918.34z"/>
	</g>
	<g id="Layer_18">
		<linearGradient id="SVGID_8_" gradientUnits="userSpaceOnUse" x1="379.307" y1="834.4913" x2="310.0594" y2="792.9977">
			<stop  offset="0" style="stop-color:#CE9461"/>
			<stop  offset="0.4874" style="stop-color:#D69E6B"/>
			<stop  offset="1" style="stop-color:#E4AF7C"/>
		</linearGradient>
		<path class="st6" d="M284.07,918.33c1.09-3.99,2.97-16.61,3.4-19.5c1.12-7.61,5.65-23.03,9.12-29.97
			c2.71-5.42,8.36-15.88,12.28-20.59c3.77-4.53,11.04-11.78,15.73-15.45c5.73-4.47,17.94-11.04,24.25-14.73
			c5.6-3.27,18.23-9.94,23.3-13.93c6.59-5.19,18.48-17.06,23.51-23.66c3.99-5.24,11.5-16.51,14.49-22.32
			c2.44-4.74,6.39-15.31,7.17-20.54c0.37-2.46-0.34-8.87-2.01-10.78c-3.07-3.51-9.95-11.5-13.62-14.99
			c-3.39-3.22-9.32-10.4-13.22-13.05c-1.28-0.87-6.31-3.02-7.85-3.32c-3.96-0.76-11.56-2.25-13.92,0.89
			c-2.16,2.88,3.63,10.23,3.49,13.77c-0.1,2.47-3.67,6.57-5.28,8.5c-2.69,3.23-7.78,9.9-10.54,13.07
			c-3.53,4.05-10.85,11.94-14.82,15.59c-6.48,5.96-21.75,13.72-27.62,20.22c-4.01,4.44-11.39,14.29-13.74,19.71
			c-2.27,5.24-5.89,17.61-7.65,23.02c-1.39,4.28-3.08,14.06-4.17,19c-1.66,7.45-3.74,21.78-6.09,29.06
			c-1.76,5.44-9.94,8.48-15.44,13.75c-0.12,0.11,1.38,7.04,2.31,11.5C268.52,890.29,280.55,919.04,284.07,918.33z"/>
	</g>
	<g id="Layer_21">
		<linearGradient id="SVGID_9_" gradientUnits="userSpaceOnUse" x1="378.3828" y1="739.3917" x2="359.0706" y2="722.2576">
			<stop  offset="0" style="stop-color:#C1875C"/>
			<stop  offset="0.5233" style="stop-color:#CC8E5F"/>
			<stop  offset="1" style="stop-color:#DD9763"/>
		</linearGradient>
		<path class="st7" d="M368.07,739.37c-6.28,3.42-14.23,0.29-13.08-6.49c0.56-3.29,3.48-8.05,6.04-10.29
			c4.65-4.09,16.51-9.4,17.08,1.64C378.47,731.18,373.67,736.32,368.07,739.37z"/>
	</g>
	<g id="Layer_20">
		<path class="st8" d="M369.68,734.71c6.92-4.32,5.92-14.3-3.89-12.04C359.43,724.82,360.08,738.32,369.68,734.71z"/>
	</g>
</g>
<g id="Asa_-_superior">
	<g id="Layer_36">
		<linearGradient id="SVGID_10_" gradientUnits="userSpaceOnUse" x1="580.5272" y1="1141.1935" x2="303.4836" y2="1498.203">
			<stop  offset="0" style="stop-color:#366A51"/>
			<stop  offset="0.0351" style="stop-color:#356550"/>
			<stop  offset="0.1443" style="stop-color:#30594D"/>
			<stop  offset="0.2801" style="stop-color:#2D514A"/>
			<stop  offset="0.4708" style="stop-color:#2B4C48"/>
			<stop  offset="1" style="stop-color:#2B4B48"/>
		</linearGradient>
		<path class="st9" d="M435.6,1270.51c6.99-22.23,14.29-37.06,18.09-47.73c3.68-10.34,84.58-13.7,94.15-19.66
			c16.53-10.3,37.5-58.47,56.33-52.84c5.27,1.57,4.87,16.46,3.57,21.59c-2,7.89-10.65,24.09-13.09,31.86
			C585.85,1231.73,428.92,1291.78,435.6,1270.51z"/>
	</g>
	<linearGradient id="SVGID_11_" gradientUnits="userSpaceOnUse" x1="296.6849" y1="1056.0217" x2="452.1171" y2="1255.4143">
		<stop  offset="0" style="stop-color:#EEEB4F"/>
		<stop  offset="1" style="stop-color:#F3D445"/>
	</linearGradient>
	<path class="st10" d="M506.11,1127.86c-6.08,14.07-52.78,97.72-61.98,110.78c81.84,0,107.09-30.58,160.43-86.86l2.56,22.33
		c0,0,4.79-17.11,5.81-22.92c1.2-6.85,2.83-20.71,2.77-27.65c-1.91-202.03-260.54-119.65-355.08-20.95
		c-39.62,41.37-91.89,102.06-119.81,148.04c40.14,3.47,90.97-14.92,126.84-34.28c33.4-18.02,112.37-70.29,133.51-85.59
		c-19.78,23.5-87.34,93.57-106.16,121.82c55.36,2.31,114.29-33.24,155.82-69.26C466.7,1169.55,497.21,1143.63,506.11,1127.86z"/>
	<g id="Layer_25">
		<linearGradient id="SVGID_12_" gradientUnits="userSpaceOnUse" x1="627.4312" y1="916.0567" x2="297.7756" y2="1245.7122">
			<stop  offset="0" style="stop-color:#EEED4F"/>
			<stop  offset="0.2838" style="stop-color:#F0E14A"/>
			<stop  offset="0.6582" style="stop-color:#F2D746"/>
			<stop  offset="1" style="stop-color:#F3D445"/>
		</linearGradient>
		<path class="st11" d="M224.54,1147.66c-22.27,21.76-63.44,75.96-78.99,100.14c56.73-2.97,135.81-44.51,163.94-61.72
			c20.72-12.67,69.26-44.6,101.66-65.95c0.56-0.37,1.27,0.19,1.02,0.78c-14.27,32.92-54.39,75.25-63.63,84.09
			c-4.98,4.77-40.06,36.73-47.01,43.6c-0.55,0.54,0.03,1.42,0.78,1.19c36.87-4.9,64.3-16.44,88.91-31.66
			c28.53-17.64,40.46-29.98,66.72-50.53c13.89-10.87,36.34-32.92,49.65-43.26c1.15-0.9,2.82,0.26,2.29,1.58
			c-0.69,1.72-1.15,3.51-1.97,5.13c-30.33,59.44-46.1,90.35-50.82,99.6c-0.29,0.56,0.36,1.1,0.85,0.68
			c9.97-8.6,51.53-32.16,58.79-37.53c33.99-25.16,64.05-58.7,72.03-95.57c8.96-41.45-5.79-76.07-51.89-87.73
			c-43.42-10.98-110.56-9.23-149.18,18.59c20.76-6.33,61.7-15.58,75.46-15.77c10.79-0.15,71.32-2.46,78.89,14.38
			c0.76,1.69-0.66,3.53-2.58,3.4c-145.21-13.5-207.4,166.86-338.62,158.44C190.28,1188.85,224.54,1147.66,224.54,1147.66z"/>
	</g>
	<g id="Layer_23">
		<linearGradient id="SVGID_13_" gradientUnits="userSpaceOnUse" x1="507.3298" y1="1108.4524" x2="553.5225" y2="1224.5935">
			<stop  offset="0" style="stop-color:#F3D445"/>
			<stop  offset="1" style="stop-color:#F1B241"/>
		</linearGradient>
		<path class="st12" d="M489.04,1170.65c4.45-6.06,22.03-45.03,27.89-52.78c-7.78,26.92-30.84,69.91-42.13,92.94
			c55.63-36.54,127.59-86.45,111.31-155.3c-5.92-25.01-39.67-42.67-64.97-50.75c77.68,4.46,106.57,93.89,86.32,164.96l-1.32-23.99
			c-40.59,46.51-76.96,91.37-159.84,91.37C468.75,1203.9,469.71,1202.36,489.04,1170.65z"/>
	</g>
	<g id="Layer_24">
		<linearGradient id="SVGID_14_" gradientUnits="userSpaceOnUse" x1="324.6725" y1="1285.537" x2="462.8087" y2="1111.7875">
			<stop  offset="0" style="stop-color:#F0C23E"/>
			<stop  offset="0.6113" style="stop-color:#F0C43F"/>
			<stop  offset="0.8311" style="stop-color:#F1CA41"/>
			<stop  offset="0.9876" style="stop-color:#F3D444"/>
			<stop  offset="1" style="stop-color:#F3D644"/>
		</linearGradient>
		<path class="st13" d="M426.03,1193.47c3.05-1.99,48.77-40.25,66.15-53.47c0.78-0.59,1.69,0.46,1.01,1.16
			c-43.99,45.29-111.03,106.43-189.95,110.62c-12.58,0.67,47.12-59.94,51.29-64.44c22.03-23.81,40.43-43.65,62.87-66.41
			c-22.49,44.59-66.17,74.71-96.88,118.15c-0.83,1.22,0.26,2.79,1.76,2.53C384.74,1224.68,379.63,1223.72,426.03,1193.47z"/>
	</g>
</g>
<g id="Layer_26">
	<linearGradient id="SVGID_15_" gradientUnits="userSpaceOnUse" x1="419.9311" y1="1304.1528" x2="457.0248" y2="1365.7462">
		<stop  offset="0" style="stop-color:#4CB667"/>
		<stop  offset="0.1878" style="stop-color:#4BB566"/>
		<stop  offset="0.2554" style="stop-color:#4AAF62"/>
		<stop  offset="0.3026" style="stop-color:#48A55D"/>
		<stop  offset="1" style="stop-color:#459454"/>
	</linearGradient>
	<path class="st14" d="M251.2,1416.96c-2.73,0.12-3.8-3.33-1.45-4.65c23.59-13.26,62.1-30.67,77.53-41.18
		c20.58-14.02,57.11-47.75,74.98-64.84c28.15-26.92,33.73-40.66,33.73-40.66s40.12-1.12,53-4.29c19.41-4.77,55.57-22.68,72.02-33.62
		c16.66-11.08,35.18-26.6,35.18-26.6s-10.59,24.22-15.82,33c-9.67,16.28-36.14,47.37-49.69,60.89c-8.72,8.7-27.64,24.71-37.34,32.4
		c-23.35,18.49-62.65,40.52-87.59,53.47c-16.07,8.34-47.02,19.42-64.71,23.71C322.91,1408.99,273.63,1415.96,251.2,1416.96z"/>
	<g id="Layer_30">
		<linearGradient id="SVGID_16_" gradientUnits="userSpaceOnUse" x1="430.1591" y1="1247.948" x2="458.6072" y2="1358.9331">
			<stop  offset="0" style="stop-color:#4CB765"/>
			<stop  offset="0.1774" style="stop-color:#4AAE61"/>
			<stop  offset="0.6785" style="stop-color:#479C58"/>
			<stop  offset="1" style="stop-color:#469555"/>
		</linearGradient>
		<path class="st15" d="M305.72,1406.32c0,0,48.1-25.62,62.96-35.88c11.2-7.74,32.24-25.05,41.79-34.61
			c5.37-5.38,14.93-17.17,19.98-22.82c6.82-7.63,28.3-29.69,28.3-29.69s-10.34,1.24-13.63,1.4c-3.83,0.18-17.9,0.55-17.9,0.55
			s7.41-7.57,8.7-9.9c0.9-1.63,2.63-7.2,2.63-7.2s19.21,0,27.32,0c3.21,0,9.53-0.01,12.69-0.59c6.39-1.18,19.16-3.68,25.35-5.61
			c5.04-1.57,14.79-5.66,19.52-7.96c4.69-2.27,13.97-7.02,18.37-9.76c6.89-4.29,19.97-13.88,26.49-18.67
			c4.46-3.28,17.82-13.12,17.82-13.12s-13.02,14.31-17.35,19.08c-2.4,2.64-7.12,7.97-9.57,10.56c-1.82,1.93-5.63,5.64-7.46,7.56
			c-5.06,5.31-14.78,16.28-19.71,21.71c-1.69,1.86-5.14,5.52-6.83,7.38c-1.97,2.17-6.34,6.99-8.26,9.2
			c-5.11,5.88-14.75,17.29-20.48,22.61c-3.16,2.94-10.25,7.99-13.65,10.68c-11.52,9.11-32.7,29.48-44.81,37.86
			c-10.38,7.18-32.83,19.28-44.55,24.24c-10.82,4.58-32.97,12.76-44.42,15.6C338.36,1401.57,305.72,1406.32,305.72,1406.32z"/>
	</g>
	<g id="Layer_29">
		<linearGradient id="SVGID_17_" gradientUnits="userSpaceOnUse" x1="511.8357" y1="1286.9023" x2="527.6677" y2="1304.8047">
			<stop  offset="0" style="stop-color:#3D6D44"/>
			<stop  offset="0.3429" style="stop-color:#3C6B43"/>
			<stop  offset="0.5835" style="stop-color:#396440"/>
			<stop  offset="0.7921" style="stop-color:#35593C"/>
			<stop  offset="0.9826" style="stop-color:#2E4B35"/>
			<stop  offset="1" style="stop-color:#2D4934"/>
		</linearGradient>
		<path class="st16" d="M436.19,1362.35c-1.19,0.47-2.16-1-1.2-1.82c10.65-9.07,35.77-29.63,43.72-35.89
			c8.44-6.64,21.71-20.12,28.83-26.94c8.35-7.98,23.33-25.55,31.15-34.32c5.93-6.64,18.84-19,24.48-25.87
			c3.98-4.86,24.62-26.87,24.62-26.87c3.82,3.18-4.83,16.75-4.83,16.75s-6.94,12.92-12.19,19.26c-8.8,10.62-25.47,30.7-34.8,40.89
			c-6.56,7.17-20.89,20.89-28.45,27.09c-12.1,9.93-24.6,19.81-38.28,28.57C466.55,1344.93,443.58,1359.42,436.19,1362.35z"/>
	</g>
</g>
<g id="Layer_27">
	<linearGradient id="SVGID_18_" gradientUnits="userSpaceOnUse" x1="244.4596" y1="1325.8855" x2="279.2965" y2="1383.7314">
		<stop  offset="0" style="stop-color:#4CB667"/>
		<stop  offset="0.1878" style="stop-color:#4BB566"/>
		<stop  offset="0.2554" style="stop-color:#4AAF62"/>
		<stop  offset="0.3026" style="stop-color:#48A55D"/>
		<stop  offset="1" style="stop-color:#459454"/>
	</linearGradient>
	<path class="st17" d="M89.11,1429.29c-1.77,0.17-2.45-2.14-0.85-2.88c10.26-4.73,27.42-12.76,34.41-16.65
		c12.19-6.79,35.56-21.99,46.86-30.07c13.8-9.86,41.19-29.93,53.93-41.02c10.62-9.25,30.99-28.71,40.22-39.25
		c4.3-4.91,15.09-19.32,17.59-22.66c0.33-0.44,0.85-0.67,1.41-0.63c5.58,0.44,35.8,2.71,46.21,0.46
		c16.89-3.65,39.62-7.86,53.44-12.92c10.3-3.78,24.53-10.41,32.95-14.44c1.55-0.74,3.04,1.09,1.91,2.35
		c-6.82,7.65-18.61,20.79-23.86,26.05c-10.78,10.81-33.23,31.64-45.08,41.37c-8.31,6.82-22.97,19.53-33.47,27.05
		c-10.8,7.73-32.21,23.59-43.99,29.85c-14.13,7.51-42.53,22.45-57.49,28.31c-13.07,5.12-39.92,13.86-53.75,16.61
		C144.66,1423.77,106.56,1427.61,89.11,1429.29z"/>
	<g id="Layer_31">
		<linearGradient id="SVGID_19_" gradientUnits="userSpaceOnUse" x1="245.2433" y1="1310.8248" x2="325.743" y2="1391.3246">
			<stop  offset="0" style="stop-color:#4DB765"/>
			<stop  offset="0.193" style="stop-color:#4CB564"/>
			<stop  offset="0.2625" style="stop-color:#4BAF61"/>
			<stop  offset="0.3105" style="stop-color:#48A55D"/>
			<stop  offset="0.3881" style="stop-color:#469656"/>
			<stop  offset="0.4849" style="stop-color:#458B51"/>
			<stop  offset="0.6213" style="stop-color:#44864F"/>
			<stop  offset="1" style="stop-color:#44844E"/>
		</linearGradient>
		<path class="st18" d="M136.64,1420.08l24.91-16.49l56.79-38.98l60.97-45.98l26.4-25.47l-12.64-0.35l-18.08-1.17l7.27-11.83
			l24.45,2.65l37.15-6.63c0,0,41.66-9.75,38.43-9.75l25.8-10.26l-16.65,18.93l-14.36,13.04l-26.72,25.14l-33.85,26.51l-33.34,25.37
			l-38.95,22.12l-39.8,17.73L136.64,1420.08z"/>
	</g>
</g>
<g id="Asa_-_inferior">
	<linearGradient id="SVGID_20_" gradientUnits="userSpaceOnUse" x1="135.1244" y1="1299.3679" x2="174.7798" y2="1365.215">
		<stop  offset="0" style="stop-color:#4CB667"/>
		<stop  offset="0.1878" style="stop-color:#4BB566"/>
		<stop  offset="0.2554" style="stop-color:#4AAF62"/>
		<stop  offset="0.3026" style="stop-color:#48A55D"/>
		<stop  offset="1" style="stop-color:#459454"/>
	</linearGradient>
	<path class="st19" d="M38.23,1419.25c-2.37,0.72-4.31-1.86-2.85-3.78c9.86-12.96,32.78-43.28,40.88-55.73
		c10.14-15.57,32.11-57.86,42.61-78.33c3.47-6.76,11.02-10.65,18.83-9.74c12.83,1.5,31.65,3.31,39.73,2.18
		c18.69-2.63,54.13-16.04,72.14-21.48c4.69-1.42,15.18-4.64,22.48-6.88c2.18-0.67,3.89,1.83,2.38,3.47
		c-5,5.43-12.15,13.18-15.45,16.57c-11.18,11.49-34.38,33.72-46.34,44.48c-15.57,14.01-47.05,41.83-64.15,54.1
		c-15.01,10.78-46.04,31.38-62.99,39.1C75.88,1407.59,50.82,1415.41,38.23,1419.25z"/>
	<g id="Layer_32">
		<linearGradient id="SVGID_21_" gradientUnits="userSpaceOnUse" x1="120.9431" y1="1271.2612" x2="149.6528" y2="1310.0917">
			<stop  offset="0" style="stop-color:#4CB666"/>
			<stop  offset="0.0701" style="stop-color:#4BB063"/>
			<stop  offset="0.4073" style="stop-color:#479C5A"/>
			<stop  offset="0.7248" style="stop-color:#449054"/>
			<stop  offset="1" style="stop-color:#448C52"/>
		</linearGradient>
		<path class="st20" d="M59.52,1408.08c0,0,19.03-21.91,25.33-29.24c10.25-11.92,30.72-35.8,40.84-47.82
			c9.32-11.07,37.01-44.48,37.01-44.48s-14.16-0.78-18.89-0.84c-4.6-0.06-17.91-3.97-17.91-3.97l3.71-5.43c0,0,16.85,2.04,22.49,2.3
			c5.29,0.24,15.94,0.48,21.18-0.21c8.3-1.09,24.52-5.38,32.54-7.73c11.31-3.31,33.93-9.98,44.99-13.99
			c4.28-1.55,16.82-6.89,16.82-6.89s-24.76,25.5-33.2,33.83c-5.53,5.46-16.9,16.1-22.49,21.51c-4.97,4.8-14.56,14.74-19.66,19.42
			c-7.16,6.59-22,19.26-29.7,25.27c-6.4,4.99-19.44,14.69-26.21,19.21c-7.74,5.17-23.36,15.36-31.67,19.63
			C93.81,1394.27,59.52,1408.08,59.52,1408.08z"/>
	</g>
</g>
<g id="Corpo">
	<path class="st21" d="M345.93,661.92c66.36-17.99,106.39,52.41,133.7,115.88c33.2,79.79,2.71,153.21-51.7,206.23
		c155.76-41.64,259.93,51.87,205.93,211.09c-30,97.69-143.42,181.18-244.84,235.1c88.61,35.99,228.01-54.94,244.7-78.47
		c0,0-40.96,50.36-67.25,70.11c-7.22,5.42-28.59,22.05-28.59,22.05c138.63-38.85,234.62-168.97,268.87-299.75
		c2.52,75.13-30.27,171.29-88.33,231.58c139.33-89.98,188.52-268.86,150.1-423.37l25,39.1c-8.29-83.26-40.63-183.99-86.56-258.82
		l44.11,20.01c-24.67-37.96-72.37-110.39-125.14-139.02C616.06,547.56,412.84,543.82,345.93,661.92z"/>
	<g id="Sombra_-_2">
		<linearGradient id="SVGID_22_" gradientUnits="userSpaceOnUse" x1="552.7882" y1="1072.6345" x2="857.1566" y2="1332.1733">
			<stop  offset="0" style="stop-color:#F0BF3F"/>
			<stop  offset="0.5085" style="stop-color:#F0AF3F"/>
			<stop  offset="1" style="stop-color:#F0A340"/>
		</linearGradient>
		<path class="st22" d="M657.58,1094.93c-15.44,177.33-123.66,254.55-264.25,333.44c41.14,17.56,104.17-3.14,135.98-15.76
			c49.95-19.82,64.78-36.81,104.43-61.72c-11.08,28.24-58.84,65.25-76.78,82.65c45.56-14.37,98.53-51.96,132.24-86.37
			c39.43-40.25,64.62-77.06,92.79-140.19c13.49-30.24,16.9-46.51,21.65-60.74c1.01-3.03,5.71-2.3,5.71,0.88
			c-0.01,32.52-2.04,52.31-16.05,100.67c-6.1,21.05-15.91,43.64-25.49,62.44c-7.04,13.82-36.08,53.72-36.08,53.72
			c36.16-26.84,76.85-70.48,102.09-120.96c17.44-34.88,35.48-84.88,40.17-123.2c6.43-52.63,5.14-83.67,1.98-112.79
			c-2.27-20.9-7.04-40.95-8.02-49.93c-0.65-5.99,2.18-5.23,5.15-0.98c8.14,11.59,17.57,27.35,18.84,30.4
			c-7.13-33.31-12.61-72.2-37.09-100.06c0,0-49.7-85.01-49.7-85.01l-33.48-33.85l20.49,80.72c6.92,22.82,24.63,72.97,25.35,96.91
			l-21.89-44.52l-30.95-33.08l12.18,63.55c2.06,20.88,11.29,60.22,13.76,81.19L775.85,1052c-1.68-21.96-11.67-70.13-16.91-91.91
			c0,0-18.45-26.7-18.45-26.7l-32.89-13.66L721.28,951l13.43,30.9c4.7,31.75,9.28,72.7,6.09,104.54c0,0-16.53,46.33-16.53,46.33
			l-28.41,46.19l-43.53,50.47c-8.56,7.85-26.94,24.65-35.85,32.05c9.77-20.37,32.05-66.84,42.03-87.62c0,0,3.63-21.51,3.63-21.51
			l0.43-30.79L657.58,1094.93z"/>
	</g>
	<g id="Sombra_-_1">
		<linearGradient id="SVGID_23_" gradientUnits="userSpaceOnUse" x1="443.9697" y1="827.2394" x2="830.3369" y2="1029.4647">
			<stop  offset="0" style="stop-color:#F4D546"/>
			<stop  offset="1" style="stop-color:#F2BA3E"/>
		</linearGradient>
		<path class="st23" d="M386.77,657.81c-1.5-0.62-1.79-2.53-0.54-3.54c8.88-7.12,37.23-29.43,52.03-36.21
			c33.09-18.17,84.79-27.71,121.69-27.39c78.03-2.71,153.39,42.26,205.26,86.72c-2.47-13.74-19.31-37.88-30.89-51.11
			c0.1-2.11,36.17,26.41,47.32,36.52c17.72,17.33,55.02,73.02,63.63,84.81c-74.91-46.19-24.26,11.92-11.21,46.06
			c15.27,34.92,41.94,95.93,44.85,134.86c-9.54-15.29-32.55-55.34-44.1-74.19c-12.59-20.67-55.07-75.42-63.15-85.93
			c29.16,58.45,46.75,106.77,46.75,188.49c0,0-10.17-20.19-14.83-30.18c-9.09-19.51-21.86-40-35.32-48.42
			c19.79,32.88,31.89,82.06,30.71,120.84c-2.46,31.08-10.91,48.7-24.34,59.99c-0.13-35.18-11.84-82.39-34.98-115.23
			c-5.34-7.57-32.04-23.32-32.04-23.32c8.21,10.55,28.3,41.8,32.23,58.53c11.18,49.66,7.59,106.83-12.87,153.96
			c-14.63,41.31-94.31,118.28-115.46,135.09c36.09-61.42,50.23-102.96,46.08-172.37l-10.85,64.46
			c5.11-34.83,6.22-110.84-26.81-142.59c-48.25-51.95-119.29-54.08-183.86-38.75c48.11-51.93,73.95-95.99,56.6-169.32
			c-5.15-35.59-23.39-70.6-45.18-99.46C435.34,690.49,416.32,666.64,386.77,657.81z"/>
	</g>
	<g id="Sombra_-_3">
		<linearGradient id="SVGID_24_" gradientUnits="userSpaceOnUse" x1="442.9983" y1="942.1943" x2="582.4937" y2="898.9751">
			<stop  offset="0" style="stop-color:#F3B342"/>
			<stop  offset="1" style="stop-color:#F0D244"/>
		</linearGradient>
		<path class="st24" d="M436.77,979.24c-0.84,0.19-1.58-0.86-0.9-1.39c8.26-6.43,33.47-34.98,40.75-46.37
			c11.84-18.53,28.21-65.26,29.13-67.88c0.02-0.06,0.09-0.08,0.14-0.04c1.87,1.29,28.89,19.95,38.55,24.9
			c8.22,4.2,25.52,11.23,34.6,13.23c7.19,1.58,18.66,1.87,25.17,1.58c2.56-0.12,3.13,1.91,1.68,4.2
			c-7.74,12.25-15.51,20.8-20.51,25.59c-9.06,8.66-22.02,21.31-37.16,32.67c-2.26,1.7-6.21,4.13-8.77,5.38
			c-1.91,0.94-4.01,1.89-5.34,1.75c-8.31-0.87-18.94-1.13-24.72-1.51c-10.38-0.69-26.6,0.7-39.93,1.58
			C462.82,973.37,443.79,977.63,436.77,979.24z"/>
	</g>
	<g id="Sombra_-_4">
		<linearGradient id="SVGID_25_" gradientUnits="userSpaceOnUse" x1="500.2246" y1="622.4279" x2="524.6922" y2="659.3119">
			<stop  offset="0" style="stop-color:#F3B53F"/>
			<stop  offset="0.1939" style="stop-color:#F3B740"/>
			<stop  offset="0.2431" style="stop-color:#F3B840"/>
			<stop  offset="0.2922" style="stop-color:#F3B940"/>
			<stop  offset="0.3293" style="stop-color:#F3BA40"/>
			<stop  offset="0.3663" style="stop-color:#F3BA40"/>
			<stop  offset="0.3756" style="stop-color:#F3BB40"/>
			<stop  offset="0.3848" style="stop-color:#F3BB41"/>
			<stop  offset="0.4033" style="stop-color:#F3BB41"/>
			<stop  offset="0.4404" style="stop-color:#F3BC41"/>
			<stop  offset="0.6636" style="stop-color:#F3C442"/>
			<stop  offset="1" style="stop-color:#F3D345"/>
		</linearGradient>
		<path class="st25" d="M457.94,718.36c-2.67,4.24-27.2-27.98-22.34-30.41c41.02-71.77,155.88-74.52,209.71-15.2
			c4.23,16.31-12.78,6.52-18.86,0.97c-31.39-25.79-53.38-35.01-94.04-28.83c-35.59,5.41-33.66,13.95-55.34,43.05
			C475.44,690.16,459.68,715.61,457.94,718.36z"/>
	</g>
</g>
<g id="Olho">
	<g id="Sombra_-_fundo">
		<path class="st26" d="M602.73,755.22c15.16-17.24,15.16-29.27,15.84-41.88c1.21-22.41-7.74-30.77-12.89-40.12
			c-5.57-10.1-21.1-19.25-29.47-21.8c-14.38-4.38-35.55-0.54-45.68,4.58c-10.47,5.29,1.14,11.08-33.07,32.41
			c-3.18,1.98-4.61,7.64-5.73,13.46c-0.78,4.05-1.43,8.68-0.82,16.44c0.4,5.05,4.31,14.78,6.14,19.53
			c4.52,11.73,21.9,26.35,32.01,31.35c6,2.97,19.77,4.85,26.52,5.01c3.73,0.09,11.27,0.05,14.9-0.78c5.37-1.23,14.69-3.7,20.46-7.98
			C593.9,763.24,600.33,757.96,602.73,755.22z"/>
	</g>
	<path id="Fundo_-_olho" class="st27" d="M586.26,763.75c61.55-38.08,20.53-138.53-57.56-109.8c-27.85,11.3-43.54,40.85-31.47,76.34
		C511.12,768.04,557.48,781.36,586.26,763.75z"/>
	<g id="Olho_1_">
		<path class="st28" d="M590.26,699.21c-11.37-51.21-87.59-42.38-85.45,11.91c0.86,31.25,37.9,45.26,63.61,34.63
			C586.28,738.21,594.22,719.45,590.26,699.21z"/>
	</g>
	<g id="Íris">
		<linearGradient id="SVGID_26_" gradientUnits="userSpaceOnUse" x1="518.4207" y1="688.4629" x2="549.926" y2="704.7756">
			<stop  offset="0" style="stop-color:#DCE8A8"/>
			<stop  offset="0.2233" style="stop-color:#D5E1A4"/>
			<stop  offset="0.5632" style="stop-color:#C1CE98"/>
			<stop  offset="0.9756" style="stop-color:#A0B186"/>
			<stop  offset="1" style="stop-color:#9EAF85"/>
		</linearGradient>
		<path class="st29" d="M547.2,700.3c3.77-11.46-11.04-21.73-23-13.95c-1.02,0.66-1.92,1.49-2.64,2.45
			c-9.15,12.21,9.52,26.95,21.64,17.15C545.03,704.46,546.47,702.51,547.2,700.3z"/>
	</g>
	<g id="Sombra_1_">
		<linearGradient id="SVGID_27_" gradientUnits="userSpaceOnUse" x1="541.8093" y1="709.8465" x2="531.3375" y2="691.9797">
			<stop  offset="0" style="stop-color:#43614A"/>
			<stop  offset="0.346" style="stop-color:#45634C"/>
			<stop  offset="0.5189" style="stop-color:#4D6950"/>
			<stop  offset="0.6535" style="stop-color:#5B7458"/>
			<stop  offset="0.7683" style="stop-color:#6F8565"/>
			<stop  offset="0.8704" style="stop-color:#899C76"/>
			<stop  offset="0.9622" style="stop-color:#ABBA8E"/>
			<stop  offset="1" style="stop-color:#BCCA9B"/>
		</linearGradient>
		<path class="st30" d="M533,710.14c-4.41-0.33-8.42-2.65-10.82-5.3c18.43-7.08,22.32-16.86,22.73-17.15
			c1.87,1.62,2.54,3.28,3.11,4.62c1.1,2.56,0.91,5.29,0,8.49c-1.46,5.13-6.47,7.98-9.04,8.7C537.57,709.88,534.73,710.27,533,710.14
			z"/>
	</g>
	<g id="Brilho">
		<linearGradient id="SVGID_28_" gradientUnits="userSpaceOnUse" x1="526.7626" y1="687.0803" x2="539.8889" y2="705.0826">
			<stop  offset="0" style="stop-color:#BCCA9C"/>
			<stop  offset="0.0871" style="stop-color:#ADBC90"/>
			<stop  offset="0.3456" style="stop-color:#879A75"/>
			<stop  offset="0.5908" style="stop-color:#6D8364"/>
			<stop  offset="0.8154" style="stop-color:#5D765A"/>
			<stop  offset="1" style="stop-color:#587257"/>
		</linearGradient>
		<path class="st31" d="M522.5,704.72c14.36-5.45,20.23-13.15,22.4-16.98c0.03-0.05-0.14-0.15-0.14-0.15s-5.85-2.06-10.95-1.03
			c-4.65,0.94-8.31,2.86-10.82,5.99C519.06,697.43,520.87,705.33,522.5,704.72z"/>
	</g>
</g>
<g id="Layer_39">
	<text transform="matrix(1 0 0 1 1091.4052 1104.7322)" class="st32 st33">Jujuba’s Dev</text>
	<text transform="matrix(1 0 0 1 1083.4055 1210.3446)" class="st34 st35">if(you need) { we code(); }</text>
</g>
</svg>
