<?xml version="1.0" encoding="utf-8"?>
<!-- Generator: Adobe Adobe Illustrator 24.2.0, SVG Export Plug-In . SVG Version: 6.00 Build 0)  -->
<svg version="1.1" xmlns="http://www.w3.org/2000/svg" xmlns:xlink="http://www.w3.org/1999/xlink" x="0px" y="0px" width="2000px"
	 height="2000px" viewBox="0 0 2000 2000" style="enable-background:new 0 0 2000 2000;" xml:space="preserve">
<style type="text/css">
	.st0{fill:url(#SVGID_1_);}
	.st1{fill:url(#SVGID_2_);}
</style>
<g id="Layer_4">
	<linearGradient id="SVGID_1_" gradientUnits="userSpaceOnUse" x1="0" y1="1000" x2="2000" y2="1000">
		<stop  offset="0" style="stop-color:#F6F6F6"/>
		<stop  offset="0.6125" style="stop-color:#EBEEF0"/>
		<stop  offset="1" style="stop-color:#E2E7EA"/>
	</linearGradient>
	<rect class="st0" width="2000" height="2000"/>
</g>
<g id="Layer_2">
	<linearGradient id="SVGID_2_" gradientUnits="userSpaceOnUse" x1="1981.0394" y1="902.6641" x2="1674.7065" y2="1156.8888">
		<stop  offset="0" style="stop-color:#C9E835"/>
		<stop  offset="0.3878" style="stop-color:#98D53B"/>
		<stop  offset="0.798" style="stop-color:#63C342"/>
		<stop  offset="1" style="stop-color:#4ABB46"/>
	</linearGradient>
	<path class="st1" d="M1825.46,825.7l38.7,128.78c0.85,2.83,3.46,4.71,6.33,4.57l122.88-6.14c6.26-0.31,9.08,7.96,4.01,11.75
		l-99.62,74.46c-2.21,1.66-3.14,4.59-2.29,7.27l38.59,122.2c1.89,5.99-4.76,10.97-9.7,7.27l-101.07-75.55
		c-2.21-1.65-5.2-1.65-7.41,0l-101.07,75.55c-4.95,3.7-11.59-1.29-9.7-7.27l38.59-122.2c0.85-2.68-0.08-5.62-2.29-7.27
		l-101.03-75.51c-4.95-3.7-2.41-11.76,3.7-11.76h124.9c2.73,0,5.15-1.81,6-4.49l38.45-121.76
		C1815.34,819.58,1823.64,819.64,1825.46,825.7z"/>
</g>
<g id="Layer_3">
	<g>
		<g>
			<defs>
				<path id="SVGID_3_" d="M3.29,887.8c-37.54,417.5,249.52,968.32,676.76,819.9c348.02-117.05,263.78-369.41,255.81-595.23
					l11.23-19.95c14.16,14.16,83.67,46,102.18,55.17c63.1,3.74,126.98-91.97,61.86-137.7L565.06,603.06
					c-4.07-3.03-8.72-6.04-9.35,4.69l-0.56,236.2c0,40.8,12.58,54.91,35.02,71.69L741.3,1022.1c0,0,5.2,261.91-3.38,410.92
					c-5.37,93.32-152.18,181.88-251.53,135.65C173.99,1423.27,104.2,781.84,341.88,462.98
					c359.23-481.93,977.66-280.62,1246.33,202.21c32.58,58.56,115.47,60.77,147.17,1.7c14.18-25.5,17.26-59.45,2.69-85.95
					C1287.53-327.69,94.72-128.9,3.29,887.8z"/>
			</defs>
			<clipPath id="SVGID_4_">
				<use xlink:href="#SVGID_3_"  style="overflow:visible;"/>
			</clipPath>
		</g>
	</g>
	<g>
		<g>
			<defs>
				<path id="SVGID_5_" d="M557.14,625.51c-12.23-114.34,36.03-175.86,134.4-188.01c11.93-1.47,24.05,1.67,34.16,8.36
					c257.09,170.1,478.75,278.47,753.78,462.07c70.26,59.24,75.92,158.83,5.3,225.18c-211,158.49-378.95,317.36-648.74,493.57
					c-1.93,1.26-4.39-0.27-4.34-2.62c0,0-0.99-460.77,1.37-563.24c1.1-47.75,181.66,59.54,193.02,63.9
					c90.62,34.75,137.98-66.98,81.44-111.98c-121.72-96.89-398.9-252.46-529.06-349.96C566.67,653.92,558.74,640.47,557.14,625.51z"
					/>
			</defs>
			<clipPath id="SVGID_6_">
				<use xlink:href="#SVGID_5_"  style="overflow:visible;"/>
			</clipPath>
		</g>
	</g>
	<g>
		<g>
			<defs>
				<path id="SVGID_7_" d="M452.59,1830.09l210.36-42.34c18.72-3.77,38.03-3.63,56.67,0.54c438.32,97.92,758.46-73.38,910.6-469.16
					c33.08-86.06,133.74-73.86,149.25,27.87c3.41,22.4,0.31,45.32-7.16,66.65c-177.19,506.55-858.28,777.42-1322.75,430.33
					C444.26,1840.02,446.17,1831.38,452.59,1830.09z"/>
			</defs>
			<clipPath id="SVGID_8_">
				<use xlink:href="#SVGID_7_"  style="overflow:visible;"/>
			</clipPath>
		</g>
	</g>
</g>
</svg>
