<?xml version="1.0" encoding="utf-8"?>
<!-- Generator: Adobe Adobe Illustrator 24.2.0, SVG Export Plug-In . SVG Version: 6.00 Build 0)  -->
<svg version="1.1" xmlns="http://www.w3.org/2000/svg" xmlns:xlink="http://www.w3.org/1999/xlink" x="0px" y="0px" width="2000px"
	 height="2000px" viewBox="0 0 2000 2000" style="enable-background:new 0 0 2000 2000;" xml:space="preserve">
<style type="text/css">
	.st0{fill:url(#SVGID_1_);}
	.st1{font-family:'Futura-CondensedMedium';}
	.st2{font-size:180px;}
	.st3{font-family:'AvenirNext-Regular';}
	.st4{font-size:80px;}
</style>
<g id="Layer_2">
	<linearGradient id="SVGID_1_" gradientUnits="userSpaceOnUse" x1="1490.5197" y1="661.332" x2="1337.3533" y2="788.4444">
		<stop  offset="0" style="stop-color:#C9E835"/>
		<stop  offset="0.3878" style="stop-color:#98D53B"/>
		<stop  offset="0.798" style="stop-color:#63C342"/>
		<stop  offset="1" style="stop-color:#4ABB46"/>
	</linearGradient>
	<path class="st0" d="M1412.73,622.85l19.35,64.39c0.43,1.42,1.73,2.36,3.17,2.28l61.44-3.07c3.13-0.16,4.54,3.98,2,5.88
		l-49.81,37.23c-1.11,0.83-1.57,2.3-1.15,3.64l19.3,61.1c0.95,2.99-2.38,5.49-4.85,3.64l-50.53-37.77c-1.1-0.83-2.6-0.83-3.7,0
		l-50.53,37.77c-2.47,1.85-5.8-0.64-4.85-3.64l19.3-61.1c0.42-1.34-0.04-2.81-1.15-3.64l-50.51-37.76c-2.47-1.85-1.2-5.88,1.85-5.88
		h62.45c1.37,0,2.58-0.91,3-2.24l19.23-60.88C1407.67,619.79,1411.82,619.82,1412.73,622.85z"/>
</g>
<g id="Layer_3">
	<g>
		<g>
			<defs>
				<path id="SVGID_2_" d="M501.65,653.9c-18.77,208.75,124.76,484.16,338.38,409.95c174.01-58.53,131.89-184.7,127.9-297.61
					l5.61-9.98c7.08,7.08,41.83,23,51.09,27.58c31.55,1.87,63.49-45.99,30.93-68.85L782.53,511.53c-2.03-1.52-4.36-3.02-4.68,2.35
					l-0.28,118.1c0,20.4,6.29,27.45,17.51,35.84l75.57,53.23c0,0,2.6,130.95-1.69,205.46c-2.69,46.66-76.09,90.94-125.77,67.82
					C587,921.64,552.1,600.92,670.94,441.49c179.62-240.97,488.83-140.31,623.16,101.1c16.29,29.28,57.74,30.38,73.59,0.85
					c7.09-12.75,8.63-29.73,1.35-42.98C1143.76,46.16,547.36,145.55,501.65,653.9z"/>
			</defs>
			<clipPath id="SVGID_3_">
				<use xlink:href="#SVGID_2_"  style="overflow:visible;"/>
			</clipPath>
		</g>
	</g>
	<g>
		<g>
			<defs>
				<path id="SVGID_4_" d="M778.57,522.75c-6.11-57.17,18.01-87.93,67.2-94.01c5.97-0.74,12.02,0.83,17.08,4.18
					c128.54,85.05,239.38,139.23,376.89,231.04c35.13,29.62,37.96,79.41,2.65,112.59c-105.5,79.24-189.47,158.68-324.37,246.79
					c-0.96,0.63-2.2-0.13-2.17-1.31c0,0-0.5-230.39,0.69-281.62c0.55-23.88,90.83,29.77,96.51,31.95
					c45.31,17.38,68.99-33.49,40.72-55.99c-60.86-48.45-199.45-126.23-264.53-174.98C783.34,536.96,779.37,530.23,778.57,522.75z"/>
			</defs>
			<clipPath id="SVGID_5_">
				<use xlink:href="#SVGID_4_"  style="overflow:visible;"/>
			</clipPath>
		</g>
	</g>
	<g>
		<g>
			<defs>
				<path id="SVGID_6_" d="M726.29,1125.04l105.18-21.17c9.36-1.88,19.02-1.81,28.34,0.27c219.16,48.96,379.23-36.69,455.3-234.58
					c16.54-43.03,66.87-36.93,74.63,13.93c1.71,11.2,0.15,22.66-3.58,33.33c-88.59,253.28-429.14,388.71-661.38,215.17
					C722.13,1130.01,723.08,1125.69,726.29,1125.04z"/>
			</defs>
			<clipPath id="SVGID_7_">
				<use xlink:href="#SVGID_6_"  style="overflow:visible;"/>
			</clipPath>
		</g>
	</g>
</g>
<g id="Layer_5">
	<text transform="matrix(1 0 0 1 549.6483 1410.6396)" class="st1 st2">TechStart Júnior</text>
	<text transform="matrix(1 0 0 1 529.3666 1518.1946)" class="st3 st4">Organize. Conecte. Inove.</text>
</g>
</svg>
